<?xml version="1.0" standalone="no"?>
<!DOCTYPE svg PUBLIC "-//W3C//DTD SVG 20010904//EN"
 "http://www.w3.org/TR/2001/REC-SVG-20010904/DTD/svg10.dtd">
<svg version="1.0" xmlns="http://www.w3.org/2000/svg"
 width="15pt" height="15pt" viewBox="0 0 15 15"
 preserveAspectRatio="xMidYMid meet">

<g transform="translate(0.000000,480.000000) scale(0.100000,-0.100000)"
fill="#000000" stroke="none">
<path d="M2402 4101 c-3 -35 15 -43 20 -8 2 12 6 21 11 20 4 -2 22 -3 40 -3
l32 0 -6 -97 c-4 -54 -7 -108 -8 -120 -1 -13 -7 -23 -16 -23 -8 0 -15 -4 -15
-10 0 -5 18 -10 40 -10 22 0 40 5 40 10 0 6 -7 10 -16 10 -15 0 -16 10 -10 77
3 42 6 96 6 120 l0 44 43 -3 c37 -3 42 -6 40 -25 -2 -13 1 -23 6 -23 12 0 20
49 10 56 -5 3 -55 8 -112 11 l-103 6 -2 -32z"/>
<path d="M2165 4110 c-3 -5 0 -10 8 -10 11 0 16 -21 21 -87 4 -49 10 -102 12
-119 5 -29 3 -32 -25 -36 -29 -4 -35 2 -112 104 -45 60 -85 111 -89 113 -10 6
-13 -11 -36 -163 -11 -74 -21 -115 -30 -119 -29 -11 -2 -21 31 -10 19 5 32 14
29 19 -3 4 -10 5 -16 2 -8 -5 -9 9 -4 47 4 29 9 55 11 57 1 2 26 9 53 16 l50
14 31 -43 c23 -32 27 -45 18 -54 -9 -9 2 -10 48 -6 81 8 109 15 100 23 -3 4
-14 7 -23 7 -13 0 -18 11 -20 52 -3 45 0 52 19 58 23 8 23 9 69 -75 18 -31 32
-45 48 -46 12 -1 22 3 22 7 0 5 -8 9 -17 9 -12 0 -29 20 -47 55 l-28 55 20 17
c32 27 37 64 12 96 -19 24 -28 27 -85 27 -35 0 -67 -4 -70 -10z m113 -11 c57
-20 54 -80 -4 -99 -52 -18 -64 -9 -64 49 0 39 4 51 18 54 9 3 17 5 18 6 1 0
15 -4 32 -10z m-228 -141 c0 -6 -9 -9 -62 -24 -20 -6 -23 17 -11 77 l6 33 33
-40 c19 -21 34 -42 34 -46z"/>
<path d="M2673 4096 c17 -13 17 -18 -3 -127 -11 -62 -20 -114 -20 -117 0 -2
-7 -2 -15 2 -8 3 -15 1 -15 -3 0 -12 26 -21 58 -21 24 0 24 1 8 13 -16 12 -16
19 -6 77 26 151 31 169 46 163 8 -3 14 -1 14 5 0 5 -14 12 -31 16 -47 9 -56 7
-36 -8z"/>
<path d="M2791 4077 c14 -11 13 -23 -15 -124 -24 -90 -34 -113 -48 -113 -30 0
-20 -17 13 -24 46 -9 55 -7 36 7 -15 11 -15 16 -1 65 9 28 16 52 17 52 1 0 30
-9 65 -19 34 -11 62 -15 62 -10 0 5 -27 16 -60 26 -33 9 -60 20 -60 25 0 19
23 98 28 98 3 0 32 -7 65 -17 53 -15 58 -18 53 -40 -4 -12 -2 -23 3 -23 8 0
23 52 16 59 -5 4 -168 51 -180 50 -5 0 -3 -5 6 -12z"/>
<path d="M3010 4003 c9 -14 2 -40 -28 -118 -32 -80 -44 -101 -63 -106 -23 -6
-22 -7 15 -23 21 -10 41 -14 45 -10 3 4 0 9 -6 11 -19 7 -17 19 28 131 28 68
46 101 54 98 29 -11 23 9 -6 21 -42 17 -51 16 -39 -4z"/>
<path d="M1585 3919 c-76 -67 -62 -190 28 -233 46 -21 79 -20 127 4 56 29 62
44 33 96 l-24 43 -34 -16 c-19 -9 -32 -20 -29 -25 3 -4 14 -4 24 2 29 16 37
12 50 -21 12 -27 11 -33 -7 -51 -31 -30 -100 -34 -141 -8 -91 56 -71 186 33
224 l40 15 -32 0 c-22 1 -43 -8 -68 -30z"/>
<path d="M3088 3892 c-37 -35 -42 -45 -46 -94 -4 -50 -2 -58 27 -91 36 -41 96
-66 114 -48 8 8 5 11 -11 11 -31 0 -77 25 -96 52 -21 29 -21 107 0 136 23 34
90 64 124 57 46 -10 82 -43 74 -69 -6 -20 -6 -20 12 -3 18 18 18 19 -18 53
-33 29 -45 34 -88 34 -45 0 -55 -4 -92 -38z"/>
<path d="M3339 3836 c15 -18 -112 -208 -134 -200 -26 11 -16 -11 14 -29 37
-22 44 -21 30 1 -10 16 -1 34 52 114 54 81 67 95 82 87 27 -16 20 6 -8 25 -31
20 -52 22 -36 2z"/>
<path d="M1406 3819 c-30 -24 -34 -43 -7 -34 14 4 33 -12 85 -74 36 -44 66
-82 66 -84 0 -2 -70 9 -156 25 -120 22 -159 26 -170 17 -8 -6 -14 -16 -14 -21
0 -6 6 -6 14 1 11 9 29 -7 89 -81 l76 -93 -24 -24 -23 -24 -114 36 c-156 49
-158 49 -158 40 1 -4 30 -64 65 -133 44 -86 60 -127 52 -132 -6 -4 -8 -10 -4
-14 8 -8 57 34 57 48 0 5 -8 7 -18 4 -14 -5 -23 5 -41 40 l-22 47 28 31 c15
17 30 34 34 39 3 4 29 2 57 -5 46 -10 51 -14 46 -32 -4 -13 16 1 55 39 33 33
61 61 61 63 0 1 -10 0 -22 -2 -19 -4 -34 9 -86 75 -35 44 -62 82 -60 84 1 1
62 -8 133 -21 72 -14 143 -27 159 -30 34 -6 38 -13 -68 120 -56 71 -66 89 -56
101 18 22 -3 18 -34 -6z m-225 -362 l28 -12 -28 -34 -29 -35 -27 53 -27 54 28
-7 c15 -4 39 -12 55 -19z"/>
<path d="M3421 3639 c-96 -47 -126 -57 -137 -48 -24 19 -15 -6 9 -29 25 -24
46 -30 28 -9 -8 11 0 19 39 37 l50 24 33 -30 c17 -16 36 -32 41 -36 14 -11
-24 -110 -40 -104 -21 8 -17 -11 6 -27 10 -7 46 -48 79 -89 33 -42 64 -79 69
-82 6 -3 21 3 33 14 26 21 20 26 -11 10 -15 -8 -24 -2 -54 34 -19 24 -36 48
-38 53 -2 5 38 43 88 85 67 56 95 73 103 65 23 -23 19 0 -5 28 -14 17 -23 23
-21 14 4 -11 -14 -33 -51 -66 -64 -55 -126 -103 -134 -103 -3 0 -13 11 -21 24
-15 23 -14 32 28 157 25 73 45 134 45 136 0 7 -22 -2 -139 -58z m94 -28 l-17
-51 -34 26 c-19 15 -34 30 -34 34 0 8 93 51 98 45 2 -2 -4 -26 -13 -54z"/>
<path d="M930 3310 l-20 -40 21 3 c17 1 29 -11 56 -60 l35 -63 -76 0 c-61 0
-76 3 -76 15 0 25 -14 16 -32 -19 -17 -35 -13 -56 6 -31 18 23 173 24 224 1
30 -14 38 -22 35 -37 -3 -10 -3 -19 0 -19 10 0 46 64 40 73 -3 5 -9 3 -13 -4
-7 -10 -16 -9 -47 5 -30 13 -48 33 -83 94 -26 44 -44 87 -42 100 4 33 -5 27
-28 -18z"/>
<path d="M2330 3329 c-68 -27 -113 -99 -112 -179 l1 -55 -122 -43 c-67 -24
-141 -51 -165 -60 l-42 -16 -32 38 c-58 71 -145 93 -223 57 -67 -30 -115 -105
-115 -176 1 -35 36 -99 73 -132 42 -37 88 -48 156 -39 l49 6 27 -52 c15 -28
32 -60 38 -70 9 -14 8 -22 -9 -38 l-20 -20 -41 20 c-100 48 -206 8 -254 -95
-23 -51 -23 -89 0 -140 48 -103 159 -144 256 -95 l39 20 20 -20 20 -20 -36
-67 -37 -68 -70 3 c-58 3 -77 0 -109 -18 -136 -77 -129 -267 13 -331 78 -36
165 -14 222 56 l31 37 164 -58 163 -59 1 -45 c1 -64 19 -112 57 -148 125 -120
331 -19 315 155 l-3 34 159 60 c88 32 165 59 171 59 6 0 17 -11 24 -24 24 -45
101 -86 161 -86 14 0 48 11 76 25 138 69 138 256 1 327 -34 17 -53 20 -107 15
l-65 -5 -37 68 -37 67 22 21 c22 20 22 20 57 2 112 -60 255 20 268 150 13 138
-140 244 -263 181 l-39 -21 -22 22 -22 23 40 72 c34 63 42 72 58 63 31 -17
108 -11 149 10 101 51 132 183 64 268 -34 43 -104 82 -148 82 -45 0 -127 -43
-150 -79 -11 -17 -27 -31 -35 -30 -8 0 -84 26 -168 57 l-154 57 -1 61 c-2 77
-36 132 -99 163 -47 22 -115 27 -158 10z m161 -31 c48 -27 79 -83 79 -142 0
-138 -150 -217 -266 -141 -56 36 -85 120 -65 186 33 111 148 155 252 97z
m-243 -247 l22 -30 -141 -150 c-77 -83 -142 -151 -145 -151 -2 0 -28 17 -56
37 -29 20 -55 38 -57 39 -2 2 5 23 14 48 11 30 15 57 11 80 -6 33 -5 35 36 50
158 59 284 105 289 106 3 0 15 -13 27 -29z m501 -31 c90 -33 164 -60 165 -60
0 0 -1 -22 -2 -50 -3 -30 2 -61 11 -80 l15 -30 -55 -40 c-31 -22 -59 -40 -63
-40 -3 0 -49 46 -101 103 -155 166 -179 194 -179 201 0 9 33 55 40 56 3 0 79
-27 169 -60z m-959 30 c98 -50 119 -183 41 -261 -67 -67 -160 -72 -232 -12
-61 52 -75 128 -36 203 41 82 142 113 227 70z m1385 0 c109 -53 119 -218 17
-286 -97 -66 -232 -16 -262 95 -38 143 109 257 245 191z m-880 -50 c3 -5 -37
-87 -90 -182 -52 -95 -96 -177 -98 -182 -2 -5 -26 8 -55 28 -35 26 -49 42 -44
51 11 19 266 293 274 294 4 1 10 -3 13 -9z m331 -97 c55 -60 119 -128 141
-153 l41 -45 -53 -37 -53 -38 -100 182 c-92 166 -106 198 -83 198 4 0 52 -48
107 -107z m-224 68 c24 0 52 4 63 8 21 8 41 -24 187 -291 l37 -67 -70 -51 -69
-52 -35 31 c-61 54 -159 55 -225 3 l-37 -31 -66 47 c-37 26 -67 51 -67 55 0 8
141 267 182 334 16 27 23 31 38 23 10 -6 38 -10 62 -9z m-432 -270 c0 -4 -20
-26 -44 -50 l-44 -43 -37 67 -38 67 24 22 24 23 58 -40 c31 -22 57 -43 57 -46z
m990 -26 c-19 -36 -38 -65 -41 -65 -9 0 -92 91 -87 95 2 3 29 22 59 44 l54 40
25 -25 25 -24 -35 -65z m-896 -38 l29 -23 -41 -75 c-69 -126 -62 -124 -115
-29 l-47 82 46 49 c45 46 48 48 73 34 14 -8 39 -25 55 -38z m805 -126 c-24
-44 -46 -81 -49 -81 -7 0 -17 17 -69 111 l-41 76 52 37 52 36 50 -49 49 -49
-44 -81z m-111 -12 c23 -42 42 -79 42 -83 0 -3 -46 -6 -103 -6 l-103 0 -15 50
-16 51 66 48 c75 55 63 60 129 -60z m-578 55 c47 -34 60 -49 55 -62 -4 -9 -10
-30 -14 -47 l-7 -30 -108 -3 -108 -3 35 63 c19 35 42 78 51 96 9 17 20 32 25
32 5 0 37 -21 71 -46z m-378 -10 c21 -13 45 -35 54 -49 22 -34 29 -104 15
-148 -25 -76 -127 -130 -203 -108 -136 41 -174 212 -64 296 64 49 131 52 198
9z m678 11 c107 -54 121 -209 27 -286 -90 -73 -233 -26 -267 88 -43 143 106
266 240 198z m454 -58 c-13 -23 -24 -52 -24 -64 0 -20 -5 -23 -40 -23 l-40 0
36 63 c19 34 40 73 47 86 l11 23 17 -21 c17 -21 16 -23 -7 -64z m257 48 c48
-31 83 -110 74 -166 -15 -89 -104 -157 -188 -145 -147 22 -205 188 -102 291
60 59 141 67 216 20z m-1263 -50 c23 -41 42 -77 42 -80 0 -3 -15 -5 -34 -5
-30 0 -35 4 -41 30 -4 16 -17 45 -30 64 -21 31 -22 35 -7 50 9 9 19 16 22 16
3 0 24 -34 48 -75z m2 -177 c-23 -40 -44 -75 -46 -77 -2 -2 -13 4 -24 14 -19
17 -19 18 0 42 10 13 24 39 30 58 9 28 17 34 43 37 18 2 33 2 35 2 2 -1 -15
-35 -38 -76z m200 73 l86 -1 12 -46 c7 -26 11 -48 10 -49 -2 -1 -30 -20 -62
-43 -33 -23 -63 -42 -67 -42 -5 0 -84 132 -107 181 -1 3 8 5 20 3 13 -1 61 -3
108 -3z m670 1 c0 -2 -23 -46 -51 -97 l-50 -94 -52 36 c-89 61 -86 56 -68 110
l15 48 103 0 c57 0 103 -1 103 -3z m110 -21 c0 -9 12 -36 25 -60 24 -42 25
-45 8 -63 -20 -22 -19 -23 -71 72 l-41 75 40 -3 c28 -3 39 -9 39 -21z m-866
-89 c25 -45 46 -84 46 -86 0 -2 -23 -21 -51 -42 l-51 -37 -49 50 -50 49 47 83
c26 45 50 79 55 74 4 -4 28 -45 53 -91z m824 18 l43 -80 -43 -50 c-24 -28 -46
-50 -50 -50 -5 0 -31 16 -58 36 l-50 36 42 77 c53 97 62 111 68 111 3 0 24
-36 48 -80z m-535 -69 c52 -20 121 -13 163 15 21 15 42 31 45 36 3 5 38 -14
77 -42 l72 -52 -24 -42 c-13 -22 -54 -97 -91 -166 -94 -173 -83 -160 -117
-148 -26 9 -85 8 -127 -3 -10 -3 -47 54 -112 171 -54 96 -98 180 -98 185 -1 6
29 31 67 57 l67 46 25 -23 c14 -13 38 -29 53 -34z m-363 -122 c0 -4 -24 -23
-54 -44 -53 -36 -54 -37 -80 -20 -14 10 -26 20 -26 23 0 3 16 34 36 70 l36 64
44 -43 c24 -24 44 -46 44 -50z m990 27 l34 -65 -23 -25 -23 -24 -52 36 c-28
19 -55 39 -60 43 -8 7 69 99 83 99 3 0 22 -29 41 -64z m-243 -131 c-164 -179
-194 -208 -206 -201 -8 6 -2 26 22 69 19 34 64 117 102 184 l67 123 53 -37 53
-37 -91 -101z m-572 98 c144 -260 156 -286 146 -296 -7 -7 -14 -7 -19 -2 -18
21 -158 173 -208 226 -29 31 -54 61 -56 67 -3 12 70 71 89 72 6 0 28 -30 48
-67z m-16 -164 l139 -150 -16 -30 c-20 -36 -17 -36 -172 21 -63 23 -131 48
-150 55 -33 12 -35 15 -32 51 2 22 -4 59 -13 83 -15 43 -15 44 7 60 12 9 36
26 53 38 16 12 33 22 37 23 4 0 70 -68 147 -151z m721 134 c88 -58 90 -60 73
-93 -9 -19 -14 -50 -11 -81 l3 -49 -55 -21 c-30 -12 -106 -39 -169 -61 l-114
-41 -18 24 c-10 13 -19 28 -19 33 0 5 24 34 53 65 28 31 90 98 136 149 45 51
86 92 90 92 4 0 18 -7 31 -17z m-1040 -30 c69 -49 88 -134 48 -213 -34 -66
-66 -85 -146 -85 -79 0 -120 23 -152 85 -81 159 104 316 250 213z m1347 22
c71 -30 105 -80 106 -154 1 -97 -71 -171 -167 -171 -159 0 -231 182 -115 292
52 49 110 60 176 33z m-658 -272 c52 -39 66 -70 66 -141 0 -80 -24 -120 -90
-152 -51 -25 -88 -25 -140 -1 -102 46 -133 161 -70 258 44 66 167 85 234 36z"/>
<path d="M3897 3264 c-3 -3 -3 -12 -1 -19 3 -8 -16 -24 -48 -42 -29 -17 -74
-42 -101 -57 -38 -23 -50 -26 -62 -16 -22 18 -19 8 23 -71 26 -51 38 -66 40
-52 2 16 25 29 99 57 53 20 98 34 100 32 2 -2 -30 -66 -71 -142 -41 -76 -74
-139 -73 -141 2 -1 58 19 126 44 103 40 124 45 132 33 12 -21 11 2 -2 37 -10
26 -12 27 -19 8 -5 -14 -38 -32 -105 -58 -54 -20 -99 -36 -100 -35 -2 2 31 65
72 141 65 118 74 141 65 160 -10 22 -11 22 -11 1 -1 -17 -20 -28 -108 -61
l-108 -41 -23 26 c-12 14 -19 29 -15 33 5 4 52 33 107 64 76 44 100 54 107 44
4 -7 11 -11 14 -7 3 3 -2 20 -13 37 -10 17 -21 28 -25 25z"/>
<path d="M792 3041 c-7 -19 -12 -41 -12 -50 1 -14 2 -14 14 1 12 16 19 15 115
-14 56 -17 98 -35 94 -39 -5 -3 -69 -32 -143 -63 -133 -56 -150 -67 -150 -96
1 -12 3 -12 14 2 12 17 20 16 125 -18 l112 -35 -5 -30 c-2 -17 -6 -32 -8 -34
-2 -2 -60 -20 -128 -41 -69 -20 -129 -40 -133 -44 -5 -4 48 -39 117 -76 120
-66 126 -70 126 -101 0 -35 3 -34 -167 -49 -63 -5 -73 -4 -73 10 0 9 -4 16
-10 16 -13 0 -13 -50 0 -70 8 -13 10 -13 10 1 0 12 13 18 52 22 28 4 53 5 55
4 5 -6 19 -157 14 -162 -2 -3 -24 -5 -49 -5 -31 0 -49 5 -58 18 -12 15 -13 12
-14 -25 0 -24 5 -43 10 -43 6 0 10 6 10 14 0 10 23 16 88 21 48 4 102 9 120
11 23 3 32 0 32 -11 0 -8 5 -15 10 -15 12 0 12 37 0 65 -7 16 -9 16 -9 4 -1
-21 -21 -29 -75 -29 l-43 0 -7 77 c-3 42 -5 78 -3 79 1 1 26 6 55 10 44 6 52
4 52 -10 0 -9 4 -16 10 -16 5 0 9 36 9 80 0 44 -4 80 -9 80 -4 0 -10 -5 -12
-11 -3 -8 -18 -4 -46 10 -38 19 -42 25 -42 59 0 67 8 79 58 92 33 8 48 8 50 1
8 -25 20 -8 26 37 3 26 9 61 13 77 5 27 4 29 -10 17 -13 -11 -32 -8 -117 18
-56 17 -100 33 -98 35 1 1 69 31 151 65 81 35 145 65 143 67 -2 2 -57 21 -122
41 -103 33 -119 41 -124 62 -6 24 -6 24 -18 -9z m31 -478 c-3 -21 -6 -39 -8
-41 -4 -4 -65 26 -84 42 -11 9 -6 13 25 23 67 20 72 18 67 -24z"/>
<path d="M4053 2823 c-13 -2 -23 -9 -23 -14 0 -5 11 -7 25 -3 18 4 25 2 25 -9
0 -8 3 -28 6 -45 6 -27 4 -30 -27 -35 -19 -2 -72 -12 -119 -21 -47 -9 -86 -16
-87 -16 -2 0 -3 7 -3 15 0 8 -5 15 -11 15 -7 0 -9 -9 -5 -22 3 -13 6 -31 6
-40 0 -10 5 -18 10 -18 6 0 10 8 10 18 0 16 17 22 113 39 61 11 115 17 118 14
4 -3 10 -23 13 -43 6 -34 5 -38 -14 -38 -11 0 -20 -4 -20 -9 0 -5 12 -6 28 -2
15 5 26 12 26 17 -11 78 -37 204 -42 203 -4 -1 -17 -4 -29 -6z"/>
<path d="M4121 2559 c-1 -19 -63 -29 -178 -29 -60 0 -72 3 -76 18 -3 9 -5 -22
-6 -70 0 -47 2 -93 5 -102 7 -18 54 -22 54 -5 0 6 -9 9 -20 6 -19 -5 -20 0
-20 63 l0 67 38 7 c73 12 72 13 72 -58 0 -36 5 -68 10 -71 6 -4 10 20 10 64
l0 71 55 0 55 0 0 -65 c0 -58 -2 -65 -20 -65 -11 0 -20 -5 -20 -10 0 -6 12 -9
28 -7 24 3 27 8 30 43 1 21 -2 66 -7 99 -5 33 -9 53 -10 44z"/>
<path d="M3868 2345 c-3 -5 -9 -49 -13 -96 l-7 -86 26 -5 c15 -3 29 -2 31 3 3
4 -5 9 -17 11 -21 3 -23 7 -20 63 2 33 7 63 10 66 4 3 60 1 125 -4 109 -9 117
-11 118 -31 1 -14 4 -10 10 13 10 34 4 55 -10 33 -12 -20 -239 5 -243 27 -2 9
-6 12 -10 6z"/>
<path d="M3822 2059 c-12 -51 -21 -93 -20 -95 11 -10 58 -14 58 -5 0 6 -9 11
-21 11 -22 0 -22 8 2 101 l9 37 119 -30 c90 -23 118 -34 114 -44 -3 -8 0 -14
6 -14 6 0 11 6 11 13 0 6 3 23 7 37 6 22 5 24 -10 11 -14 -11 -28 -11 -89 3
-122 27 -148 36 -148 51 0 8 -4 15 -8 15 -4 0 -18 -41 -30 -91z"/>
<path d="M875 1955 c-99 -39 -111 -42 -122 -27 -21 27 -25 6 -7 -34 14 -31 18
-35 21 -19 3 15 28 29 100 57 54 20 99 35 101 33 2 -2 -30 -65 -71 -139 -50
-90 -73 -142 -70 -156 7 -25 23 -26 23 -1 0 10 8 22 18 26 9 4 59 22 109 40
82 30 94 32 101 18 16 -27 20 0 6 35 -15 33 -40 46 -30 14 5 -15 -10 -23 -91
-52 -53 -19 -101 -37 -105 -38 -5 -2 7 22 25 55 85 146 127 233 115 233 -7 -1
-62 -21 -123 -45z"/>
<path d="M3782 1921 c-16 -44 -15 -61 2 -38 13 16 20 15 122 -22 80 -28 109
-43 108 -55 -3 -27 14 -17 25 16 12 33 6 52 -9 29 -6 -11 -29 -7 -118 24 -90
31 -112 42 -114 59 -3 17 -6 15 -16 -13z"/>
<path d="M3763 1804 c-36 -18 -73 -70 -73 -102 0 -11 -5 -24 -11 -28 -6 -3
-38 -47 -71 -98 -33 -50 -69 -102 -81 -115 -21 -22 -21 -23 -2 -18 15 5 39
-12 100 -70 l80 -76 -167 8 -167 7 94 -93 c74 -72 92 -95 84 -106 -21 -25 7
-13 32 13 22 24 22 26 4 20 -16 -5 -37 11 -100 75 l-80 81 55 -6 c30 -3 103
-8 161 -11 91 -5 109 -4 123 11 19 18 14 33 -6 16 -10 -7 -35 11 -101 73 -75
71 -85 84 -72 95 12 10 18 10 30 0 8 -7 15 -8 15 -2 0 5 -7 15 -15 22 -13 11
-10 19 22 64 20 28 38 53 39 54 2 2 23 -10 49 -28 28 -19 43 -36 39 -43 -4 -7
-21 -32 -37 -56 -40 -58 -17 -49 25 11 l34 47 44 -30 c25 -16 44 -34 43 -39
-2 -5 -17 -29 -34 -54 -27 -38 -35 -43 -51 -35 -26 14 -23 -3 4 -20 13 -8 23
-10 25 -4 2 6 24 39 48 73 44 63 57 93 33 72 -10 -7 -40 8 -110 54 -54 36 -98
68 -98 72 0 4 4 13 9 20 6 11 15 9 42 -7 45 -28 56 -26 74 9 10 20 12 30 4 30
-6 0 -13 -9 -16 -20 -3 -11 -12 -20 -20 -20 -23 0 -63 31 -63 49 1 50 64 101
123 101 106 0 161 -107 102 -195 -30 -44 -27 -58 4 -19 95 121 -30 285 -166
218z"/>
<path d="M997 1685 c-90 -47 -109 -161 -37 -230 25 -24 41 -30 90 -33 59 -4
61 -4 98 34 53 53 62 101 30 162 -37 72 -115 101 -181 67z m113 -18 c13 -7 35
-28 47 -46 81 -120 -86 -253 -189 -151 -94 95 22 258 142 197z"/>
<path d="M1247 1504 c-4 -4 -2 -13 3 -19 8 -9 -6 -26 -52 -63 -35 -28 -76 -62
-93 -75 -22 -19 -33 -22 -43 -15 -22 19 -23 2 -1 -25 22 -28 45 -37 36 -13 -6
15 37 58 123 125 30 23 56 38 58 32 4 -12 22 -15 22 -3 -1 14 -46 62 -53 56z"/>
<path d="M1357 1383 c-4 -3 -2 -12 3 -18 8 -9 -12 -36 -72 -99 l-83 -87 -32
29 c-29 27 -30 31 -15 45 9 9 13 20 9 24 -4 4 -17 -3 -30 -15 l-21 -22 74 -75
c41 -41 78 -75 82 -75 14 0 47 34 41 42 -3 5 -13 2 -22 -6 -16 -15 -20 -13
-46 14 l-29 30 84 85 c64 65 87 82 97 73 22 -18 15 5 -11 34 -12 15 -26 25
-29 21z"/>
<path d="M1460 1272 c0 -4 5 -13 11 -19 8 -8 4 -46 -15 -138 -14 -71 -26 -134
-26 -142 0 -10 14 -5 43 15 23 16 78 52 123 79 77 49 81 50 112 37 l33 -13
-56 -110 c-41 -82 -59 -109 -70 -105 -8 4 -15 2 -15 -4 0 -5 8 -12 18 -15 9
-2 26 -8 37 -13 17 -7 18 -6 7 8 -11 14 -5 32 40 122 31 62 58 104 64 102 7
-3 15 -2 18 2 6 5 -44 32 -72 38 -8 1 -22 10 -31 18 -21 19 -42 21 -35 3 3 -8
-12 -25 -36 -41 l-41 -27 -45 28 c-45 28 -45 28 -39 73 8 54 11 60 33 60 15 1
14 3 -3 16 -31 24 -55 35 -55 26z m57 -187 c18 -11 33 -22 33 -25 0 -7 -92
-62 -96 -57 -6 6 19 108 25 104 3 -1 21 -11 38 -22z"/>
<path d="M3253 1215 c-31 -13 -71 -60 -60 -71 3 -3 10 4 16 15 28 51 127 68
176 29 64 -50 68 -136 9 -188 -38 -32 -53 -37 -72 -18 -17 17 -23 6 -7 -15 12
-16 16 -17 47 -4 60 26 83 61 83 127 0 48 -4 63 -25 85 -50 54 -105 67 -167
40z"/>
<path d="M3082 1111 c-41 -22 -76 -42 -79 -44 -6 -7 19 -47 30 -47 4 0 3 9 -3
19 -9 17 -3 23 44 50 29 17 58 31 63 31 7 0 53 -81 53 -95 0 -2 -25 -18 -56
-35 -30 -18 -53 -34 -50 -37 3 -3 29 9 59 26 l55 31 26 -44 c14 -25 26 -49 26
-54 0 -5 -25 -22 -55 -38 -54 -27 -56 -27 -70 -8 -8 10 -15 14 -15 8 0 -5 6
-18 13 -28 13 -18 18 -16 95 24 45 23 79 46 77 51 -3 4 -11 6 -18 4 -7 -3 -34
37 -67 100 -46 89 -53 107 -40 115 13 9 13 10 0 10 -8 0 -48 -18 -88 -39z"/>
<path d="M1832 1044 c64 -20 98 -62 98 -121 0 -39 -5 -50 -39 -84 -31 -31 -46
-39 -75 -39 -52 0 -99 26 -93 51 6 23 -8 26 -17 3 -9 -23 20 -52 64 -64 89
-24 180 44 180 136 0 70 -63 135 -130 133 -35 0 -35 0 12 -15z"/>
<path d="M2853 1013 c-25 -5 -31 -20 -10 -25 9 -2 10 -16 4 -54 -7 -46 -11
-52 -36 -57 -16 -3 -40 -9 -54 -12 -22 -6 -30 0 -56 36 -23 31 -28 45 -19 50
20 13 4 20 -30 13 -18 -4 -32 -11 -32 -16 0 -6 7 -8 15 -4 10 3 25 -11 47 -42
18 -26 54 -76 82 -112 27 -36 51 -67 53 -69 7 -11 13 13 34 139 15 92 27 139
38 147 18 14 10 15 -36 6z m-30 -232 l-8 -32 -37 48 -37 48 42 11 c41 10 42
10 45 -17 2 -15 -1 -41 -5 -58z"/>
<path d="M2045 960 c-50 -25 -75 -65 -75 -122 0 -154 206 -192 267 -49 26 62
-6 143 -70 172 -53 24 -73 24 -122 -1z m129 -21 c56 -44 70 -110 36 -166 -52
-87 -178 -78 -217 14 -25 60 5 141 61 163 39 16 92 11 120 -11z"/>
<path d="M2313 939 c-12 -7 -27 -25 -32 -41 -16 -47 1 -74 66 -105 52 -25 58
-31 58 -58 0 -22 -7 -33 -25 -42 -33 -16 -70 -6 -70 18 0 11 -4 19 -10 19 -5
0 -10 -8 -10 -18 0 -56 101 -57 131 -1 19 37 -5 73 -67 98 -62 26 -77 55 -50
96 25 38 116 34 116 -5 0 -11 5 -22 10 -25 16 -10 12 41 -5 55 -20 17 -86 22
-112 9z"/>
<path d="M2482 934 c-16 -11 -22 -25 -22 -53 0 -47 20 -66 88 -86 58 -18 73
-42 48 -80 -22 -33 -86 -36 -86 -5 0 11 -5 20 -11 20 -6 0 -9 -10 -7 -22 2
-19 10 -24 47 -26 54 -4 81 17 81 64 0 39 -23 58 -83 68 -87 16 -83 125 5 126
41 0 58 -10 58 -36 0 -13 5 -24 10 -24 18 0 11 49 -9 60 -29 15 -93 12 -119
-6z"/>
</g>
</svg>
