<?xml version="1.0" encoding="UTF-8"?>
<svg xmlns="http://www.w3.org/2000/svg" xmlns:xlink="http://www.w3.org/1999/xlink" width="64px" height="64px" viewBox="0 0 64 64" version="1.1">
<g id="surface1">
<path style=" stroke:none;fill-rule:nonzero;fill:rgb(0%,0%,0%);fill-opacity:1;" d="M 32.027344 9.320312 C 31.988281 9.785156 32.226562 9.894531 32.292969 9.425781 C 32.320312 9.265625 32.375 9.148438 32.441406 9.160156 C 32.492188 9.1875 32.734375 9.199219 32.972656 9.199219 L 33.398438 9.199219 L 33.320312 10.492188 C 33.265625 11.214844 33.226562 11.933594 33.214844 12.09375 C 33.199219 12.265625 33.121094 12.398438 33 12.398438 C 32.894531 12.398438 32.800781 12.453125 32.800781 12.535156 C 32.800781 12.601562 33.039062 12.667969 33.332031 12.667969 C 33.625 12.667969 33.867188 12.601562 33.867188 12.535156 C 33.867188 12.453125 33.773438 12.398438 33.652344 12.398438 C 33.453125 12.398438 33.441406 12.265625 33.519531 11.375 C 33.558594 10.8125 33.601562 10.09375 33.601562 9.773438 L 33.601562 9.1875 L 34.171875 9.226562 C 34.667969 9.265625 34.734375 9.308594 34.707031 9.558594 C 34.679688 9.734375 34.71875 9.867188 34.785156 9.867188 C 34.945312 9.867188 35.054688 9.214844 34.921875 9.121094 C 34.851562 9.078125 34.1875 9.011719 33.425781 8.972656 L 32.054688 8.894531 Z M 32.027344 9.320312 "/>
<path style=" stroke:none;fill-rule:nonzero;fill:rgb(0%,0%,0%);fill-opacity:1;" d="M 28.867188 9.199219 C 28.828125 9.265625 28.867188 9.332031 28.972656 9.332031 C 29.121094 9.332031 29.1875 9.613281 29.253906 10.492188 C 29.308594 11.148438 29.386719 11.851562 29.414062 12.078125 C 29.480469 12.464844 29.453125 12.507812 29.078125 12.558594 C 28.691406 12.613281 28.613281 12.535156 27.585938 11.171875 C 26.988281 10.375 26.453125 9.691406 26.398438 9.667969 C 26.265625 9.585938 26.226562 9.8125 25.921875 11.839844 C 25.773438 12.828125 25.640625 13.375 25.519531 13.425781 C 25.132812 13.574219 25.492188 13.707031 25.933594 13.558594 C 26.1875 13.492188 26.359375 13.375 26.320312 13.308594 C 26.28125 13.253906 26.1875 13.238281 26.105469 13.28125 C 26 13.347656 25.988281 13.160156 26.054688 12.652344 C 26.105469 12.265625 26.171875 11.921875 26.199219 11.894531 C 26.214844 11.867188 26.546875 11.773438 26.90625 11.679688 L 27.574219 11.492188 L 27.988281 12.066406 C 28.292969 12.492188 28.347656 12.667969 28.226562 12.785156 C 28.105469 12.90625 28.253906 12.921875 28.867188 12.867188 C 29.945312 12.761719 30.320312 12.667969 30.199219 12.558594 C 30.160156 12.507812 30.011719 12.464844 29.894531 12.464844 C 29.71875 12.464844 29.652344 12.320312 29.625 11.773438 C 29.585938 11.171875 29.625 11.078125 29.878906 11 C 30.1875 10.894531 30.1875 10.878906 30.800781 12 C 31.039062 12.414062 31.226562 12.601562 31.441406 12.613281 C 31.601562 12.625 31.734375 12.574219 31.734375 12.519531 C 31.734375 12.453125 31.625 12.398438 31.507812 12.398438 C 31.347656 12.398438 31.121094 12.132812 30.878906 11.667969 L 30.507812 10.933594 L 30.773438 10.707031 C 31.199219 10.347656 31.265625 9.851562 30.933594 9.425781 C 30.679688 9.105469 30.558594 9.066406 29.800781 9.066406 C 29.332031 9.066406 28.90625 9.121094 28.867188 9.199219 Z M 30.375 9.347656 C 31.132812 9.613281 31.09375 10.414062 30.320312 10.667969 C 29.625 10.90625 29.464844 10.785156 29.464844 10.011719 C 29.464844 9.492188 29.519531 9.332031 29.707031 9.292969 C 29.828125 9.253906 29.933594 9.226562 29.945312 9.214844 C 29.960938 9.214844 30.148438 9.265625 30.375 9.347656 Z M 27.332031 11.226562 C 27.332031 11.308594 27.214844 11.347656 26.507812 11.546875 C 26.238281 11.625 26.199219 11.320312 26.359375 10.519531 L 26.441406 10.078125 L 26.878906 10.613281 C 27.132812 10.894531 27.332031 11.171875 27.332031 11.226562 Z M 27.332031 11.226562 "/>
<path style=" stroke:none;fill-rule:nonzero;fill:rgb(0%,0%,0%);fill-opacity:1;" d="M 35.640625 9.386719 C 35.867188 9.558594 35.867188 9.625 35.601562 11.078125 C 35.453125 11.90625 35.332031 12.601562 35.332031 12.640625 C 35.332031 12.667969 35.238281 12.667969 35.132812 12.613281 C 35.027344 12.574219 34.933594 12.601562 34.933594 12.652344 C 34.933594 12.8125 35.28125 12.933594 35.707031 12.933594 C 36.027344 12.933594 36.027344 12.921875 35.8125 12.761719 C 35.601562 12.601562 35.601562 12.507812 35.734375 11.734375 C 36.078125 9.71875 36.148438 9.480469 36.347656 9.558594 C 36.453125 9.601562 36.535156 9.574219 36.535156 9.492188 C 36.535156 9.425781 36.347656 9.332031 36.121094 9.28125 C 35.492188 9.160156 35.375 9.1875 35.640625 9.386719 Z M 35.640625 9.386719 "/>
<path style=" stroke:none;fill-rule:nonzero;fill:rgb(0%,0%,0%);fill-opacity:1;" d="M 37.214844 9.640625 C 37.398438 9.785156 37.386719 9.945312 37.011719 11.292969 C 36.691406 12.492188 36.558594 12.800781 36.375 12.800781 C 35.972656 12.800781 36.105469 13.027344 36.546875 13.121094 C 37.160156 13.238281 37.28125 13.214844 37.027344 13.027344 C 36.828125 12.878906 36.828125 12.8125 37.011719 12.160156 C 37.132812 11.785156 37.226562 11.464844 37.238281 11.464844 C 37.253906 11.464844 37.640625 11.585938 38.105469 11.71875 C 38.558594 11.867188 38.933594 11.921875 38.933594 11.851562 C 38.933594 11.785156 38.574219 11.640625 38.132812 11.507812 C 37.691406 11.386719 37.332031 11.238281 37.332031 11.171875 C 37.332031 10.921875 37.640625 9.867188 37.707031 9.867188 C 37.746094 9.867188 38.132812 9.960938 38.574219 10.09375 C 39.28125 10.292969 39.347656 10.332031 39.28125 10.625 C 39.226562 10.785156 39.253906 10.933594 39.320312 10.933594 C 39.425781 10.933594 39.625 10.238281 39.535156 10.148438 C 39.464844 10.09375 37.292969 9.464844 37.132812 9.480469 C 37.066406 9.480469 37.09375 9.546875 37.214844 9.640625 Z M 37.214844 9.640625 "/>
<path style=" stroke:none;fill-rule:nonzero;fill:rgb(0%,0%,0%);fill-opacity:1;" d="M 40.132812 10.625 C 40.253906 10.8125 40.160156 11.160156 39.761719 12.199219 C 39.332031 13.265625 39.171875 13.546875 38.921875 13.613281 C 38.613281 13.691406 38.625 13.707031 39.121094 13.921875 C 39.398438 14.054688 39.667969 14.105469 39.71875 14.054688 C 39.761719 14 39.71875 13.933594 39.640625 13.90625 C 39.386719 13.8125 39.414062 13.652344 40.011719 12.160156 C 40.386719 11.253906 40.625 10.8125 40.734375 10.851562 C 41.121094 11 41.039062 10.734375 40.652344 10.574219 C 40.09375 10.347656 39.972656 10.359375 40.132812 10.625 Z M 40.132812 10.625 "/>
<path style=" stroke:none;fill-rule:nonzero;fill:rgb(0%,0%,0%);fill-opacity:1;" d="M 21.132812 11.746094 C 20.121094 12.640625 20.308594 14.28125 21.507812 14.851562 C 22.121094 15.132812 22.558594 15.121094 23.199219 14.800781 C 23.945312 14.414062 24.027344 14.214844 23.640625 13.519531 L 23.320312 12.945312 L 22.867188 13.160156 C 22.613281 13.28125 22.441406 13.425781 22.480469 13.492188 C 22.519531 13.546875 22.667969 13.546875 22.800781 13.464844 C 23.1875 13.253906 23.292969 13.308594 23.464844 13.746094 C 23.625 14.105469 23.613281 14.1875 23.375 14.425781 C 22.960938 14.828125 22.039062 14.878906 21.492188 14.535156 C 20.28125 13.785156 20.546875 12.054688 21.933594 11.546875 L 22.464844 11.347656 L 22.039062 11.347656 C 21.746094 11.332031 21.464844 11.453125 21.132812 11.746094 Z M 21.132812 11.746094 "/>
<path style=" stroke:none;fill-rule:nonzero;fill:rgb(0%,0%,0%);fill-opacity:1;" d="M 41.171875 12.105469 C 40.679688 12.574219 40.613281 12.707031 40.558594 13.359375 C 40.507812 14.027344 40.535156 14.132812 40.921875 14.574219 C 41.398438 15.121094 42.199219 15.453125 42.441406 15.214844 C 42.546875 15.105469 42.507812 15.066406 42.292969 15.066406 C 41.878906 15.066406 41.265625 14.734375 41.011719 14.375 C 40.734375 13.988281 40.734375 12.945312 41.011719 12.558594 C 41.320312 12.105469 42.214844 11.707031 42.667969 11.800781 C 43.28125 11.933594 43.761719 12.375 43.652344 12.71875 C 43.574219 12.988281 43.574219 12.988281 43.8125 12.761719 C 44.054688 12.519531 44.054688 12.507812 43.574219 12.054688 C 43.132812 11.667969 42.972656 11.601562 42.398438 11.601562 C 41.800781 11.601562 41.667969 11.652344 41.171875 12.105469 Z M 41.171875 12.105469 "/>
<path style=" stroke:none;fill-rule:nonzero;fill:rgb(0%,0%,0%);fill-opacity:1;" d="M 44.519531 12.851562 C 44.71875 13.09375 43.027344 15.625 42.734375 15.519531 C 42.386719 15.375 42.519531 15.667969 42.921875 15.90625 C 43.414062 16.199219 43.507812 16.1875 43.320312 15.894531 C 43.1875 15.679688 43.308594 15.441406 44.011719 14.375 C 44.734375 13.292969 44.90625 13.105469 45.105469 13.214844 C 45.464844 13.425781 45.375 13.132812 45 12.878906 C 44.585938 12.613281 44.308594 12.585938 44.519531 12.851562 Z M 44.519531 12.851562 "/>
<path style=" stroke:none;fill-rule:nonzero;fill:rgb(0%,0%,0%);fill-opacity:1;" d="M 18.746094 13.078125 C 18.347656 13.398438 18.292969 13.652344 18.652344 13.535156 C 18.839844 13.480469 19.09375 13.691406 19.785156 14.519531 C 20.265625 15.105469 20.667969 15.613281 20.667969 15.640625 C 20.667969 15.667969 19.734375 15.519531 18.585938 15.308594 C 16.988281 15.011719 16.464844 14.960938 16.320312 15.078125 C 16.214844 15.160156 16.132812 15.292969 16.132812 15.359375 C 16.132812 15.441406 16.214844 15.441406 16.320312 15.347656 C 16.464844 15.226562 16.707031 15.441406 17.507812 16.425781 L 18.519531 17.667969 L 18.199219 17.988281 L 17.894531 18.308594 L 16.375 17.828125 C 14.292969 17.171875 14.265625 17.171875 14.265625 17.292969 C 14.28125 17.347656 14.667969 18.148438 15.132812 19.066406 C 15.71875 20.214844 15.933594 20.761719 15.828125 20.828125 C 15.746094 20.878906 15.71875 20.960938 15.773438 21.011719 C 15.878906 21.121094 16.535156 20.558594 16.535156 20.375 C 16.535156 20.308594 16.425781 20.28125 16.292969 20.320312 C 16.105469 20.386719 15.988281 20.253906 15.746094 19.785156 L 15.453125 19.160156 L 15.828125 18.746094 C 16.027344 18.519531 16.226562 18.292969 16.28125 18.226562 C 16.320312 18.171875 16.667969 18.199219 17.039062 18.292969 C 17.652344 18.425781 17.71875 18.480469 17.652344 18.71875 C 17.601562 18.894531 17.867188 18.707031 18.386719 18.199219 C 18.828125 17.761719 19.199219 17.386719 19.199219 17.359375 C 19.199219 17.347656 19.066406 17.359375 18.90625 17.386719 C 18.652344 17.441406 18.453125 17.265625 17.761719 16.386719 C 17.292969 15.800781 16.933594 15.292969 16.960938 15.265625 C 16.972656 15.253906 17.785156 15.375 18.734375 15.546875 C 19.691406 15.734375 20.640625 15.90625 20.851562 15.945312 C 21.308594 16.027344 21.359375 16.121094 19.945312 14.347656 C 19.199219 13.398438 19.066406 13.160156 19.199219 13 C 19.441406 12.707031 19.160156 12.761719 18.746094 13.078125 Z M 15.746094 17.90625 L 16.121094 18.066406 L 15.746094 18.519531 L 15.359375 18.988281 L 15 18.28125 L 14.640625 17.558594 L 15.011719 17.652344 C 15.214844 17.707031 15.535156 17.8125 15.746094 17.90625 Z M 15.746094 17.90625 "/>
<path style=" stroke:none;fill-rule:nonzero;fill:rgb(0%,0%,0%);fill-opacity:1;" d="M 45.613281 15.480469 C 44.332031 16.105469 43.933594 16.238281 43.785156 16.121094 C 43.464844 15.867188 43.585938 16.199219 43.90625 16.507812 C 44.238281 16.828125 44.519531 16.90625 44.28125 16.625 C 44.171875 16.480469 44.28125 16.375 44.800781 16.132812 L 45.464844 15.8125 L 45.90625 16.214844 C 46.132812 16.425781 46.386719 16.640625 46.453125 16.691406 C 46.640625 16.839844 46.132812 18.160156 45.921875 18.078125 C 45.640625 17.972656 45.691406 18.226562 46 18.441406 C 46.132812 18.535156 46.613281 19.078125 47.054688 19.625 C 47.492188 20.1875 47.90625 20.679688 47.972656 20.71875 C 48.054688 20.761719 48.253906 20.679688 48.414062 20.535156 C 48.761719 20.253906 48.679688 20.1875 48.265625 20.398438 C 48.066406 20.507812 47.945312 20.425781 47.546875 19.945312 C 47.292969 19.625 47.066406 19.308594 47.039062 19.238281 C 47.011719 19.171875 47.546875 18.667969 48.214844 18.105469 C 49.105469 17.359375 49.480469 17.132812 49.585938 17.238281 C 49.894531 17.546875 49.839844 17.238281 49.519531 16.867188 C 49.332031 16.640625 49.214844 16.558594 49.238281 16.679688 C 49.292969 16.828125 49.054688 17.121094 48.558594 17.558594 C 47.707031 18.292969 46.878906 18.933594 46.773438 18.933594 C 46.734375 18.933594 46.601562 18.785156 46.492188 18.613281 C 46.292969 18.308594 46.308594 18.1875 46.867188 16.519531 C 47.199219 15.546875 47.464844 14.734375 47.464844 14.707031 C 47.464844 14.613281 47.171875 14.734375 45.613281 15.480469 Z M 46.867188 15.851562 L 46.640625 16.535156 L 46.1875 16.1875 C 45.933594 15.988281 45.734375 15.785156 45.734375 15.734375 C 45.734375 15.625 46.972656 15.054688 47.039062 15.132812 C 47.066406 15.160156 46.988281 15.480469 46.867188 15.851562 Z M 46.867188 15.851562 "/>
<path style=" stroke:none;fill-rule:nonzero;fill:rgb(0%,0%,0%);fill-opacity:1;" d="M 12.398438 19.867188 L 12.132812 20.398438 L 12.414062 20.359375 C 12.640625 20.347656 12.800781 20.507812 13.160156 21.160156 L 13.625 22 L 12.613281 22 C 11.800781 22 11.601562 21.960938 11.601562 21.800781 C 11.601562 21.464844 11.414062 21.585938 11.171875 22.054688 C 10.945312 22.519531 11 22.800781 11.253906 22.464844 C 11.492188 22.160156 13.558594 22.148438 14.238281 22.453125 C 14.640625 22.640625 14.746094 22.746094 14.707031 22.945312 C 14.667969 23.078125 14.667969 23.199219 14.707031 23.199219 C 14.839844 23.199219 15.320312 22.347656 15.238281 22.226562 C 15.199219 22.160156 15.121094 22.1875 15.066406 22.28125 C 14.972656 22.414062 14.851562 22.398438 14.441406 22.214844 C 14.039062 22.039062 13.800781 21.773438 13.332031 20.960938 C 12.988281 20.375 12.746094 19.800781 12.773438 19.625 C 12.828125 19.1875 12.707031 19.265625 12.398438 19.867188 Z M 12.398438 19.867188 "/>
<path style=" stroke:none;fill-rule:nonzero;fill:rgb(0%,0%,0%);fill-opacity:1;" d="M 31.066406 19.613281 C 30.160156 19.972656 29.558594 20.933594 29.574219 22 L 29.585938 22.734375 L 27.960938 23.308594 C 27.066406 23.625 26.078125 23.988281 25.761719 24.105469 L 25.199219 24.320312 L 24.773438 23.8125 C 24 22.867188 22.839844 22.574219 21.800781 23.054688 C 20.90625 23.453125 20.265625 24.453125 20.265625 25.398438 C 20.28125 25.867188 20.746094 26.71875 21.238281 27.160156 C 21.800781 27.652344 22.414062 27.800781 23.320312 27.679688 L 23.972656 27.601562 L 24.332031 28.292969 C 24.535156 28.667969 24.761719 29.09375 24.839844 29.226562 C 24.960938 29.414062 24.945312 29.519531 24.71875 29.734375 L 24.453125 30 L 23.90625 29.734375 C 22.574219 29.09375 21.160156 29.625 20.519531 31 C 20.214844 31.679688 20.214844 32.1875 20.519531 32.867188 C 21.160156 34.238281 22.640625 34.785156 23.933594 34.132812 L 24.453125 33.867188 L 24.71875 34.132812 L 24.988281 34.398438 L 24.507812 35.292969 L 24.011719 36.199219 L 23.078125 36.160156 C 22.308594 36.121094 22.054688 36.160156 21.625 36.398438 C 19.8125 37.425781 19.90625 39.960938 21.800781 40.8125 C 22.839844 41.292969 24 41 24.761719 40.066406 L 25.171875 39.574219 L 27.359375 40.347656 L 29.535156 41.132812 L 29.546875 41.734375 C 29.558594 42.585938 29.800781 43.226562 30.308594 43.707031 C 31.972656 45.308594 34.71875 43.960938 34.507812 41.640625 L 34.464844 41.1875 L 36.585938 40.386719 C 37.761719 39.960938 38.785156 39.601562 38.867188 39.601562 C 38.945312 39.601562 39.09375 39.746094 39.1875 39.921875 C 39.507812 40.519531 40.535156 41.066406 41.332031 41.066406 C 41.519531 41.066406 41.972656 40.921875 42.347656 40.734375 C 44.1875 39.8125 44.1875 37.320312 42.359375 36.375 C 41.90625 36.148438 41.652344 36.105469 40.933594 36.171875 L 40.066406 36.238281 L 39.574219 35.332031 L 39.078125 34.441406 L 39.375 34.160156 C 39.667969 33.894531 39.667969 33.894531 40.132812 34.132812 C 41.625 34.933594 43.535156 33.867188 43.707031 32.132812 C 43.878906 30.292969 41.839844 28.878906 40.199219 29.71875 L 39.679688 30 L 39.386719 29.707031 L 39.09375 29.398438 L 39.625 28.441406 C 40.078125 27.601562 40.1875 27.480469 40.398438 27.601562 C 40.8125 27.828125 41.839844 27.746094 42.386719 27.464844 C 43.734375 26.785156 44.148438 25.027344 43.238281 23.894531 C 42.785156 23.320312 41.851562 22.800781 41.265625 22.800781 C 40.667969 22.800781 39.574219 23.375 39.265625 23.851562 C 39.121094 24.078125 38.90625 24.265625 38.800781 24.253906 C 38.691406 24.253906 37.679688 23.90625 36.558594 23.492188 L 34.507812 22.734375 L 34.492188 21.921875 C 34.464844 20.894531 34.011719 20.160156 33.171875 19.746094 C 32.546875 19.453125 31.640625 19.386719 31.066406 19.613281 Z M 33.214844 20.027344 C 33.851562 20.386719 34.265625 21.132812 34.265625 21.921875 C 34.265625 23.761719 32.265625 24.8125 30.71875 23.800781 C 29.972656 23.320312 29.585938 22.199219 29.851562 21.320312 C 30.292969 19.839844 31.828125 19.253906 33.214844 20.027344 Z M 29.972656 23.320312 L 30.265625 23.71875 L 28.386719 25.71875 C 27.359375 26.828125 26.492188 27.734375 26.453125 27.734375 C 26.425781 27.734375 26.078125 27.507812 25.707031 27.238281 C 25.320312 26.972656 24.972656 26.734375 24.945312 26.71875 C 24.921875 26.691406 25.011719 26.414062 25.132812 26.078125 C 25.28125 25.679688 25.332031 25.320312 25.28125 25.011719 C 25.199219 24.574219 25.214844 24.546875 25.761719 24.347656 C 27.867188 23.558594 29.546875 22.945312 29.613281 22.933594 C 29.652344 22.933594 29.8125 23.105469 29.972656 23.320312 Z M 36.652344 23.734375 C 37.851562 24.171875 38.839844 24.535156 38.851562 24.535156 C 38.851562 24.535156 38.839844 24.828125 38.828125 25.199219 C 38.785156 25.601562 38.851562 26.011719 38.972656 26.265625 L 39.171875 26.667969 L 38.441406 27.199219 C 38.027344 27.492188 37.652344 27.734375 37.601562 27.734375 C 37.558594 27.734375 36.945312 27.121094 36.253906 26.359375 C 34.1875 24.148438 33.867188 23.773438 33.867188 23.679688 C 33.867188 23.558594 34.308594 22.945312 34.398438 22.933594 C 34.441406 22.933594 35.453125 23.292969 36.652344 23.734375 Z M 23.867188 23.332031 C 25.171875 24 25.453125 25.773438 24.414062 26.8125 C 23.519531 27.707031 22.28125 27.773438 21.320312 26.972656 C 20.507812 26.28125 20.320312 25.265625 20.839844 24.265625 C 21.386719 23.171875 22.734375 22.761719 23.867188 23.332031 Z M 42.332031 23.332031 C 43.785156 24.039062 43.921875 26.238281 42.558594 27.148438 C 41.265625 28.027344 39.464844 27.359375 39.066406 25.878906 C 38.558594 23.972656 40.519531 22.453125 42.332031 23.332031 Z M 30.601562 24 C 30.640625 24.066406 30.105469 25.160156 29.398438 26.425781 C 28.707031 27.691406 28.121094 28.785156 28.09375 28.851562 C 28.066406 28.921875 27.746094 28.746094 27.359375 28.480469 C 26.894531 28.132812 26.707031 27.921875 26.773438 27.800781 C 26.921875 27.546875 30.320312 23.894531 30.425781 23.878906 C 30.480469 23.867188 30.558594 23.921875 30.601562 24 Z M 35.011719 25.292969 C 35.746094 26.09375 36.601562 27 36.894531 27.332031 L 37.441406 27.933594 L 36.734375 28.425781 L 36.027344 28.933594 L 34.691406 26.507812 C 33.464844 24.292969 33.28125 23.867188 33.585938 23.867188 C 33.640625 23.867188 34.28125 24.507812 35.011719 25.292969 Z M 32.027344 24.386719 C 32.347656 24.386719 32.71875 24.332031 32.867188 24.28125 C 33.148438 24.171875 33.414062 24.601562 35.359375 28.160156 L 35.851562 29.054688 L 34.921875 29.734375 L 34 30.425781 L 33.535156 30.011719 C 32.71875 29.292969 31.414062 29.28125 30.535156 29.972656 L 30.039062 30.386719 L 29.160156 29.761719 C 28.667969 29.414062 28.265625 29.078125 28.265625 29.027344 C 28.265625 28.921875 30.148438 25.464844 30.691406 24.574219 C 30.90625 24.214844 31 24.160156 31.199219 24.265625 C 31.332031 24.347656 31.707031 24.398438 32.027344 24.386719 Z M 26.265625 27.988281 C 26.265625 28.039062 26 28.332031 25.679688 28.652344 L 25.09375 29.226562 L 24.601562 28.332031 L 24.09375 27.441406 L 24.414062 27.148438 L 24.734375 26.839844 L 25.507812 27.375 C 25.921875 27.667969 26.265625 27.945312 26.265625 27.988281 Z M 39.464844 28.332031 C 39.214844 28.8125 38.960938 29.199219 38.921875 29.199219 C 38.800781 29.199219 37.691406 27.988281 37.761719 27.933594 C 37.785156 27.894531 38.148438 27.640625 38.546875 27.347656 L 39.265625 26.8125 L 39.601562 27.148438 L 39.933594 27.464844 Z M 27.519531 28.839844 L 27.90625 29.148438 L 27.359375 30.148438 C 26.441406 31.828125 26.535156 31.800781 25.828125 30.535156 L 25.199219 29.441406 L 25.8125 28.785156 C 26.414062 28.171875 26.453125 28.148438 26.785156 28.332031 C 26.972656 28.441406 27.308594 28.667969 27.519531 28.839844 Z M 38.253906 30.519531 C 37.933594 31.105469 37.640625 31.601562 37.601562 31.601562 C 37.507812 31.601562 37.375 31.375 36.679688 30.121094 L 36.132812 29.105469 L 36.828125 28.613281 L 37.519531 28.132812 L 38.1875 28.785156 L 38.839844 29.441406 Z M 36.773438 30.679688 C 37.078125 31.238281 37.332031 31.734375 37.332031 31.785156 C 37.332031 31.828125 36.71875 31.867188 35.960938 31.867188 L 34.585938 31.867188 L 34.386719 31.199219 L 34.171875 30.519531 L 35.054688 29.878906 C 36.054688 29.148438 35.894531 29.078125 36.773438 30.679688 Z M 29.066406 29.945312 C 29.691406 30.398438 29.867188 30.601562 29.800781 30.773438 C 29.746094 30.894531 29.667969 31.171875 29.613281 31.398438 L 29.519531 31.800781 L 28.078125 31.839844 L 26.640625 31.878906 L 27.105469 31.039062 C 27.359375 30.574219 27.667969 30 27.785156 29.761719 C 27.90625 29.535156 28.054688 29.332031 28.121094 29.332031 C 28.1875 29.332031 28.613281 29.613281 29.066406 29.945312 Z M 24.027344 30.078125 C 24.308594 30.253906 24.625 30.546875 24.746094 30.734375 C 25.039062 31.1875 25.132812 32.121094 24.945312 32.707031 C 24.613281 33.71875 23.253906 34.441406 22.238281 34.148438 C 20.425781 33.601562 19.921875 31.320312 21.386719 30.199219 C 22.238281 29.546875 23.132812 29.507812 24.027344 30.078125 Z M 33.066406 29.933594 C 34.492188 30.652344 34.679688 32.71875 33.425781 33.746094 C 32.226562 34.71875 30.320312 34.09375 29.867188 32.574219 C 29.292969 30.667969 31.28125 29.027344 33.066406 29.933594 Z M 39.121094 30.707031 C 38.945312 31.011719 38.800781 31.398438 38.800781 31.558594 C 38.800781 31.828125 38.734375 31.867188 38.265625 31.867188 L 37.734375 31.867188 L 38.214844 31.027344 C 38.464844 30.574219 38.746094 30.054688 38.839844 29.878906 L 38.988281 29.574219 L 39.214844 29.851562 C 39.441406 30.132812 39.425781 30.160156 39.121094 30.707031 Z M 42.546875 30.066406 C 43.1875 30.480469 43.652344 31.535156 43.535156 32.28125 C 43.332031 33.464844 42.148438 34.375 41.027344 34.214844 C 39.066406 33.921875 38.292969 31.707031 39.667969 30.332031 C 40.464844 29.546875 41.546875 29.441406 42.546875 30.066406 Z M 25.707031 30.734375 C 26.011719 31.28125 26.265625 31.761719 26.265625 31.800781 C 26.265625 31.839844 26.066406 31.867188 25.8125 31.867188 C 25.414062 31.867188 25.347656 31.8125 25.265625 31.464844 C 25.214844 31.253906 25.039062 30.867188 24.867188 30.613281 C 24.585938 30.199219 24.574219 30.148438 24.773438 29.945312 C 24.894531 29.828125 25.027344 29.734375 25.066406 29.734375 C 25.105469 29.734375 25.386719 30.1875 25.707031 30.734375 Z M 25.734375 33.09375 C 25.425781 33.625 25.148438 34.09375 25.121094 34.121094 C 25.09375 34.148438 24.945312 34.066406 24.800781 33.933594 C 24.546875 33.707031 24.546875 33.691406 24.800781 33.375 C 24.933594 33.199219 25.121094 32.851562 25.199219 32.601562 C 25.320312 32.226562 25.425781 32.148438 25.773438 32.105469 C 26.011719 32.078125 26.214844 32.078125 26.238281 32.078125 C 26.265625 32.09375 26.039062 32.546875 25.734375 33.09375 Z M 28.398438 32.121094 L 29.546875 32.132812 L 29.707031 32.746094 C 29.800781 33.09375 29.851562 33.386719 29.839844 33.398438 C 29.8125 33.414062 29.441406 33.667969 29.011719 33.972656 C 28.574219 34.28125 28.171875 34.535156 28.121094 34.535156 C 28.054688 34.535156 27 32.773438 26.691406 32.121094 C 26.679688 32.078125 26.800781 32.054688 26.960938 32.078125 C 27.132812 32.09375 27.773438 32.121094 28.398438 32.121094 Z M 37.332031 32.105469 C 37.332031 32.132812 37.027344 32.71875 36.652344 33.398438 L 35.988281 34.652344 L 35.292969 34.171875 C 34.105469 33.359375 34.148438 33.425781 34.386719 32.707031 L 34.585938 32.066406 L 35.960938 32.066406 C 36.71875 32.066406 37.332031 32.078125 37.332031 32.105469 Z M 38.800781 32.386719 C 38.800781 32.507812 38.960938 32.867188 39.132812 33.1875 C 39.453125 33.746094 39.464844 33.785156 39.238281 34.027344 C 38.972656 34.320312 38.988281 34.332031 38.292969 33.066406 L 37.746094 32.066406 L 38.28125 32.105469 C 38.652344 32.148438 38.800781 32.226562 38.800781 32.386719 Z M 27.253906 33.574219 C 27.585938 34.171875 27.867188 34.691406 27.867188 34.71875 C 27.867188 34.746094 27.558594 35 27.1875 35.28125 L 26.507812 35.773438 L 25.851562 35.105469 L 25.1875 34.453125 L 25.8125 33.347656 C 26.160156 32.746094 26.480469 32.292969 26.546875 32.359375 C 26.601562 32.414062 26.921875 32.960938 27.253906 33.574219 Z M 38.238281 33.332031 L 38.8125 34.398438 L 38.238281 35.066406 C 37.921875 35.441406 37.625 35.734375 37.574219 35.734375 C 37.507812 35.734375 37.160156 35.519531 36.800781 35.253906 L 36.132812 34.773438 L 36.691406 33.746094 C 37.398438 32.453125 37.519531 32.265625 37.601562 32.265625 C 37.640625 32.265625 37.921875 32.746094 38.238281 33.332031 Z M 31.105469 34.253906 C 31.800781 34.519531 32.71875 34.425781 33.28125 34.054688 C 33.558594 33.851562 33.839844 33.640625 33.878906 33.574219 C 33.921875 33.507812 34.386719 33.761719 34.90625 34.132812 L 35.867188 34.828125 L 35.546875 35.386719 C 35.375 35.679688 34.828125 36.679688 34.332031 37.601562 C 33.078125 39.90625 33.226562 39.734375 32.773438 39.574219 C 32.425781 39.453125 31.640625 39.464844 31.078125 39.613281 C 30.945312 39.652344 30.453125 38.894531 29.585938 37.332031 C 28.867188 36.054688 28.28125 34.933594 28.28125 34.867188 C 28.265625 34.785156 28.667969 34.453125 29.171875 34.105469 L 30.066406 33.492188 L 30.398438 33.800781 C 30.585938 33.972656 30.90625 34.1875 31.105469 34.253906 Z M 26.265625 35.878906 C 26.265625 35.933594 25.945312 36.1875 25.546875 36.464844 C 24.839844 36.945312 24.828125 36.960938 24.480469 36.734375 C 24.292969 36.601562 24.132812 36.464844 24.132812 36.425781 C 24.132812 36.386719 24.347656 35.972656 24.613281 35.492188 L 25.09375 34.640625 L 25.679688 35.214844 C 26 35.535156 26.265625 35.828125 26.265625 35.878906 Z M 39.464844 35.519531 L 39.921875 36.386719 L 39.613281 36.71875 L 39.308594 37.039062 L 38.613281 36.558594 C 38.238281 36.308594 37.878906 36.039062 37.8125 35.988281 C 37.707031 35.894531 38.734375 34.667969 38.921875 34.667969 C 38.960938 34.667969 39.214844 35.054688 39.464844 35.519531 Z M 36.226562 37.265625 C 34.039062 39.652344 33.640625 40.039062 33.480469 39.945312 C 33.375 39.867188 33.453125 39.601562 33.773438 39.027344 C 34.027344 38.574219 34.625 37.464844 35.132812 36.574219 L 36.027344 34.933594 L 36.734375 35.425781 L 37.441406 35.921875 Z M 28.601562 35.960938 C 30.519531 39.425781 30.679688 39.773438 30.546875 39.90625 C 30.453125 40 30.359375 40 30.292969 39.933594 C 30.054688 39.652344 28.1875 37.625 27.519531 36.921875 C 27.132812 36.507812 26.800781 36.105469 26.773438 36.027344 C 26.734375 35.867188 27.707031 35.078125 27.960938 35.066406 C 28.039062 35.066406 28.332031 35.464844 28.601562 35.960938 Z M 28.386719 38.148438 L 30.238281 40.148438 L 30.027344 40.546875 C 29.761719 41.027344 29.800781 41.027344 27.734375 40.265625 C 26.894531 39.960938 25.988281 39.625 25.734375 39.535156 C 25.292969 39.375 25.265625 39.332031 25.308594 38.851562 C 25.332031 38.558594 25.253906 38.066406 25.132812 37.746094 C 24.933594 37.171875 24.933594 37.160156 25.226562 36.945312 C 25.386719 36.828125 25.707031 36.601562 25.933594 36.441406 C 26.148438 36.28125 26.375 36.148438 26.425781 36.132812 C 26.480469 36.132812 27.359375 37.039062 28.386719 38.148438 Z M 38 36.359375 C 39.171875 37.132812 39.199219 37.160156 38.972656 37.601562 C 38.851562 37.851562 38.785156 38.265625 38.828125 38.679688 L 38.867188 39.332031 L 38.132812 39.613281 C 37.734375 39.773438 36.71875 40.132812 35.878906 40.425781 L 34.359375 40.972656 L 34.121094 40.652344 C 33.988281 40.480469 33.867188 40.28125 33.867188 40.214844 C 33.867188 40.148438 34.1875 39.761719 34.574219 39.347656 C 34.945312 38.933594 35.773438 38.039062 36.386719 37.359375 C 36.988281 36.679688 37.535156 36.132812 37.585938 36.132812 C 37.640625 36.132812 37.828125 36.226562 38 36.359375 Z M 24.132812 36.761719 C 25.054688 37.414062 25.308594 38.546875 24.773438 39.601562 C 24.320312 40.480469 23.894531 40.734375 22.828125 40.734375 C 21.773438 40.734375 21.226562 40.425781 20.800781 39.601562 C 19.71875 37.480469 22.1875 35.386719 24.132812 36.761719 Z M 42.09375 36.464844 C 43.039062 36.867188 43.492188 37.535156 43.507812 38.519531 C 43.519531 39.8125 42.558594 40.800781 41.28125 40.800781 C 39.160156 40.800781 38.199219 38.375 39.746094 36.90625 C 40.441406 36.253906 41.214844 36.105469 42.09375 36.464844 Z M 33.320312 40.09375 C 34.011719 40.613281 34.199219 41.027344 34.199219 41.972656 C 34.199219 43.039062 33.878906 43.574219 33 44 C 32.320312 44.332031 31.828125 44.332031 31.132812 44.011719 C 29.773438 43.398438 29.359375 41.867188 30.199219 40.574219 C 30.785156 39.691406 32.425781 39.441406 33.320312 40.09375 Z M 33.320312 40.09375 "/>
<path style=" stroke:none;fill-rule:nonzero;fill:rgb(0%,0%,0%);fill-opacity:1;" d="M 51.960938 20.480469 C 51.921875 20.519531 51.921875 20.640625 51.945312 20.734375 C 51.988281 20.839844 51.734375 21.054688 51.308594 21.292969 C 50.921875 21.519531 50.320312 21.851562 49.960938 22.054688 C 49.453125 22.359375 49.292969 22.398438 49.132812 22.265625 C 48.839844 22.027344 48.878906 22.160156 49.441406 23.214844 C 49.785156 23.894531 49.945312 24.09375 49.972656 23.90625 C 50 23.691406 50.308594 23.519531 51.292969 23.148438 C 52 22.878906 52.601562 22.691406 52.625 22.71875 C 52.652344 22.746094 52.226562 23.601562 51.679688 24.613281 C 51.132812 25.625 50.691406 26.464844 50.707031 26.492188 C 50.734375 26.507812 51.480469 26.238281 52.386719 25.90625 C 53.761719 25.375 54.039062 25.308594 54.148438 25.464844 C 54.308594 25.746094 54.292969 25.441406 54.121094 24.972656 C 53.988281 24.625 53.960938 24.613281 53.867188 24.867188 C 53.800781 25.054688 53.359375 25.292969 52.464844 25.640625 C 51.746094 25.90625 51.148438 26.121094 51.132812 26.105469 C 51.105469 26.078125 51.546875 25.238281 52.09375 24.226562 C 52.960938 22.652344 53.078125 22.347656 52.960938 22.09375 C 52.828125 21.800781 52.8125 21.800781 52.8125 22.078125 C 52.800781 22.308594 52.546875 22.453125 51.375 22.894531 L 49.933594 23.441406 L 49.625 23.09375 C 49.464844 22.90625 49.375 22.707031 49.425781 22.652344 C 49.492188 22.601562 50.121094 22.214844 50.851562 21.800781 C 51.867188 21.214844 52.1875 21.078125 52.28125 21.214844 C 52.332031 21.308594 52.425781 21.359375 52.464844 21.308594 C 52.507812 21.265625 52.441406 21.039062 52.292969 20.8125 C 52.160156 20.585938 52.011719 20.441406 51.960938 20.480469 Z M 51.960938 20.480469 "/>
<path style=" stroke:none;fill-rule:nonzero;fill:rgb(0%,0%,0%);fill-opacity:1;" d="M 10.558594 23.453125 C 10.464844 23.707031 10.398438 24 10.398438 24.121094 C 10.414062 24.308594 10.425781 24.308594 10.585938 24.105469 C 10.746094 23.894531 10.839844 23.90625 12.121094 24.292969 C 12.867188 24.519531 13.425781 24.761719 13.375 24.8125 C 13.308594 24.851562 12.453125 25.238281 11.464844 25.652344 C 9.691406 26.398438 9.464844 26.546875 9.464844 26.933594 C 9.480469 27.09375 9.507812 27.09375 9.652344 26.90625 C 9.8125 26.679688 9.921875 26.691406 11.320312 27.148438 L 12.8125 27.613281 L 12.746094 28.011719 C 12.71875 28.238281 12.667969 28.441406 12.640625 28.464844 C 12.613281 28.492188 11.839844 28.734375 10.933594 29.011719 C 10.011719 29.28125 9.214844 29.546875 9.160156 29.601562 C 9.09375 29.652344 9.800781 30.121094 10.71875 30.613281 C 12.320312 31.492188 12.398438 31.546875 12.398438 31.960938 C 12.398438 32.425781 12.441406 32.414062 10.171875 32.613281 C 9.332031 32.679688 9.199219 32.667969 9.199219 32.480469 C 9.199219 32.359375 9.148438 32.265625 9.066406 32.265625 C 8.894531 32.265625 8.894531 32.933594 9.066406 33.199219 C 9.171875 33.375 9.199219 33.375 9.199219 33.1875 C 9.199219 33.027344 9.375 32.945312 9.894531 32.894531 C 10.265625 32.839844 10.601562 32.828125 10.625 32.839844 C 10.691406 32.921875 10.878906 34.933594 10.8125 35 C 10.785156 35.039062 10.492188 35.066406 10.160156 35.066406 C 9.746094 35.066406 9.507812 35 9.386719 34.828125 C 9.226562 34.625 9.214844 34.667969 9.199219 35.160156 C 9.199219 35.480469 9.265625 35.734375 9.332031 35.734375 C 9.414062 35.734375 9.464844 35.652344 9.464844 35.546875 C 9.464844 35.414062 9.773438 35.332031 10.640625 35.265625 C 11.28125 35.214844 12 35.148438 12.238281 35.121094 C 12.546875 35.078125 12.667969 35.121094 12.667969 35.265625 C 12.667969 35.375 12.734375 35.464844 12.800781 35.464844 C 12.960938 35.464844 12.960938 34.972656 12.800781 34.601562 C 12.707031 34.386719 12.679688 34.386719 12.679688 34.546875 C 12.667969 34.828125 12.398438 34.933594 11.679688 34.933594 L 11.105469 34.933594 L 11.011719 33.90625 C 10.972656 33.347656 10.945312 32.867188 10.972656 32.851562 C 10.988281 32.839844 11.320312 32.773438 11.707031 32.71875 C 12.292969 32.640625 12.398438 32.667969 12.398438 32.851562 C 12.398438 32.972656 12.453125 33.066406 12.535156 33.066406 C 12.601562 33.066406 12.652344 32.585938 12.652344 32 C 12.652344 31.414062 12.601562 30.933594 12.535156 30.933594 C 12.480469 30.933594 12.398438 31 12.375 31.078125 C 12.332031 31.1875 12.132812 31.132812 11.761719 30.945312 C 11.253906 30.691406 11.199219 30.613281 11.199219 30.160156 C 11.199219 29.265625 11.308594 29.105469 11.972656 28.933594 C 12.414062 28.828125 12.613281 28.828125 12.640625 28.921875 C 12.746094 29.253906 12.90625 29.027344 12.988281 28.425781 C 13.027344 28.078125 13.105469 27.613281 13.160156 27.398438 C 13.226562 27.039062 13.214844 27.011719 13.027344 27.171875 C 12.851562 27.320312 12.601562 27.28125 11.464844 26.933594 C 10.71875 26.707031 10.132812 26.492188 10.160156 26.464844 C 10.171875 26.453125 11.078125 26.054688 12.171875 25.601562 C 13.253906 25.132812 14.105469 24.734375 14.078125 24.707031 C 14.054688 24.679688 13.320312 24.425781 12.453125 24.160156 C 11.078125 23.71875 10.867188 23.613281 10.800781 23.332031 C 10.71875 23.011719 10.71875 23.011719 10.558594 23.453125 Z M 10.972656 29.828125 C 10.933594 30.105469 10.894531 30.347656 10.867188 30.375 C 10.8125 30.425781 10 30.027344 9.746094 29.8125 C 9.601562 29.691406 9.667969 29.640625 10.078125 29.507812 C 10.972656 29.238281 11.039062 29.265625 10.972656 29.828125 Z M 10.972656 29.828125 "/>
<path style=" stroke:none;fill-rule:nonzero;fill:rgb(0%,0%,0%);fill-opacity:1;" d="M 54.039062 26.359375 C 53.867188 26.386719 53.734375 26.480469 53.734375 26.546875 C 53.734375 26.613281 53.878906 26.640625 54.066406 26.585938 C 54.308594 26.535156 54.398438 26.558594 54.398438 26.707031 C 54.398438 26.8125 54.441406 27.078125 54.480469 27.308594 C 54.558594 27.667969 54.535156 27.707031 54.121094 27.773438 C 53.867188 27.800781 53.160156 27.933594 52.535156 28.054688 C 51.90625 28.171875 51.386719 28.265625 51.375 28.265625 C 51.347656 28.265625 51.332031 28.171875 51.332031 28.066406 C 51.332031 27.960938 51.265625 27.867188 51.1875 27.867188 C 51.09375 27.867188 51.066406 27.988281 51.121094 28.160156 C 51.160156 28.332031 51.199219 28.574219 51.199219 28.691406 C 51.199219 28.828125 51.265625 28.933594 51.332031 28.933594 C 51.414062 28.933594 51.464844 28.828125 51.464844 28.691406 C 51.464844 28.480469 51.691406 28.398438 52.972656 28.171875 C 53.785156 28.027344 54.507812 27.945312 54.546875 27.988281 C 54.601562 28.027344 54.679688 28.292969 54.71875 28.558594 C 54.800781 29.011719 54.785156 29.066406 54.535156 29.066406 C 54.386719 29.066406 54.265625 29.121094 54.265625 29.1875 C 54.265625 29.253906 54.425781 29.265625 54.640625 29.214844 C 54.839844 29.148438 54.988281 29.054688 54.988281 28.988281 C 54.839844 27.945312 54.492188 26.265625 54.425781 26.28125 C 54.375 26.292969 54.199219 26.332031 54.039062 26.359375 Z M 54.039062 26.359375 "/>
<path style=" stroke:none;fill-rule:nonzero;fill:rgb(0%,0%,0%);fill-opacity:1;" d="M 54.945312 29.878906 C 54.933594 30.132812 54.105469 30.265625 52.574219 30.265625 C 51.773438 30.265625 51.613281 30.226562 51.558594 30.027344 C 51.519531 29.90625 51.492188 30.320312 51.480469 30.960938 C 51.480469 31.585938 51.507812 32.199219 51.546875 32.320312 C 51.640625 32.558594 52.265625 32.613281 52.265625 32.386719 C 52.265625 32.308594 52.148438 32.265625 52 32.308594 C 51.746094 32.375 51.734375 32.308594 51.734375 31.464844 L 51.734375 30.574219 L 52.238281 30.480469 C 53.214844 30.320312 53.199219 30.308594 53.199219 31.253906 C 53.199219 31.734375 53.265625 32.160156 53.332031 32.199219 C 53.414062 32.253906 53.464844 31.933594 53.464844 31.347656 L 53.464844 30.398438 L 54.933594 30.398438 L 54.933594 31.265625 C 54.933594 32.039062 54.90625 32.132812 54.667969 32.132812 C 54.519531 32.132812 54.398438 32.199219 54.398438 32.265625 C 54.398438 32.347656 54.558594 32.386719 54.773438 32.359375 C 55.09375 32.320312 55.132812 32.253906 55.171875 31.785156 C 55.1875 31.507812 55.148438 30.90625 55.078125 30.464844 C 55.011719 30.027344 54.960938 29.761719 54.945312 29.878906 Z M 54.945312 29.878906 "/>
<path style=" stroke:none;fill-rule:nonzero;fill:rgb(0%,0%,0%);fill-opacity:1;" d="M 51.574219 32.734375 C 51.535156 32.800781 51.453125 33.386719 51.398438 34.011719 L 51.308594 35.160156 L 51.652344 35.226562 C 51.851562 35.265625 52.039062 35.253906 52.066406 35.1875 C 52.105469 35.132812 52 35.066406 51.839844 35.039062 C 51.558594 35 51.535156 34.945312 51.574219 34.199219 C 51.601562 33.761719 51.667969 33.359375 51.707031 33.320312 C 51.761719 33.28125 52.507812 33.308594 53.375 33.375 C 54.828125 33.492188 54.933594 33.519531 54.945312 33.785156 C 54.960938 33.972656 55 33.921875 55.078125 33.613281 C 55.214844 33.160156 55.132812 32.878906 54.945312 33.171875 C 54.785156 33.441406 51.761719 33.105469 51.707031 32.8125 C 51.679688 32.691406 51.625 32.652344 51.574219 32.734375 Z M 51.574219 32.734375 "/>
<path style=" stroke:none;fill-rule:nonzero;fill:rgb(0%,0%,0%);fill-opacity:1;" d="M 50.960938 36.546875 C 50.800781 37.226562 50.679688 37.785156 50.691406 37.8125 C 50.839844 37.945312 51.464844 38 51.464844 37.878906 C 51.464844 37.800781 51.347656 37.734375 51.1875 37.734375 C 50.894531 37.734375 50.894531 37.625 51.214844 36.386719 L 51.332031 35.894531 L 52.921875 36.292969 C 54.121094 36.601562 54.492188 36.746094 54.441406 36.878906 C 54.398438 36.988281 54.441406 37.066406 54.519531 37.066406 C 54.601562 37.066406 54.667969 36.988281 54.667969 36.894531 C 54.667969 36.8125 54.707031 36.585938 54.761719 36.398438 C 54.839844 36.105469 54.828125 36.078125 54.625 36.253906 C 54.441406 36.398438 54.253906 36.398438 53.441406 36.214844 C 51.8125 35.851562 51.464844 35.734375 51.464844 35.535156 C 51.464844 35.425781 51.414062 35.332031 51.359375 35.332031 C 51.308594 35.332031 51.121094 35.878906 50.960938 36.546875 Z M 50.960938 36.546875 "/>
<path style=" stroke:none;fill-rule:nonzero;fill:rgb(0%,0%,0%);fill-opacity:1;" d="M 11.667969 37.933594 C 10.347656 38.453125 10.1875 38.492188 10.039062 38.292969 C 9.761719 37.933594 9.707031 38.214844 9.945312 38.746094 C 10.132812 39.160156 10.1875 39.214844 10.226562 39 C 10.265625 38.800781 10.601562 38.613281 11.558594 38.238281 C 12.28125 37.972656 12.878906 37.773438 12.90625 37.800781 C 12.933594 37.828125 12.507812 38.667969 11.960938 39.652344 C 11.292969 40.851562 10.988281 41.546875 11.027344 41.734375 C 11.121094 42.066406 11.332031 42.078125 11.332031 41.746094 C 11.332031 41.613281 11.441406 41.453125 11.574219 41.398438 C 11.691406 41.347656 12.359375 41.105469 13.027344 40.867188 C 14.121094 40.464844 14.28125 40.441406 14.375 40.625 C 14.585938 40.988281 14.640625 40.625 14.453125 40.160156 C 14.253906 39.71875 13.921875 39.546875 14.054688 39.972656 C 14.121094 40.171875 13.921875 40.28125 12.839844 40.667969 C 12.132812 40.921875 11.492188 41.160156 11.441406 41.171875 C 11.375 41.199219 11.535156 40.878906 11.773438 40.441406 C 12.90625 38.492188 13.464844 37.332031 13.308594 37.332031 C 13.214844 37.347656 12.480469 37.613281 11.667969 37.933594 Z M 11.667969 37.933594 "/>
<path style=" stroke:none;fill-rule:nonzero;fill:rgb(0%,0%,0%);fill-opacity:1;" d="M 50.425781 38.386719 C 50.214844 38.972656 50.226562 39.199219 50.453125 38.894531 C 50.625 38.679688 50.71875 38.691406 52.078125 39.1875 C 53.148438 39.558594 53.535156 39.761719 53.519531 39.921875 C 53.480469 40.28125 53.707031 40.148438 53.851562 39.707031 C 54.011719 39.265625 53.933594 39.011719 53.734375 39.320312 C 53.652344 39.464844 53.347656 39.414062 52.160156 39 C 50.960938 38.585938 50.667969 38.441406 50.640625 38.214844 C 50.601562 37.988281 50.558594 38.011719 50.425781 38.386719 Z M 50.425781 38.386719 "/>
<path style=" stroke:none;fill-rule:nonzero;fill:rgb(0%,0%,0%);fill-opacity:1;" d="M 50.171875 39.945312 C 49.691406 40.1875 49.199219 40.878906 49.199219 41.308594 C 49.199219 41.453125 49.132812 41.625 49.054688 41.679688 C 48.972656 41.71875 48.546875 42.308594 48.105469 42.988281 C 47.667969 43.652344 47.1875 44.347656 47.027344 44.519531 C 46.746094 44.8125 46.746094 44.828125 47 44.761719 C 47.199219 44.691406 47.519531 44.921875 48.332031 45.691406 L 49.398438 46.707031 L 47.171875 46.601562 L 44.945312 46.507812 L 46.199219 47.746094 C 47.1875 48.707031 47.425781 49.011719 47.320312 49.160156 C 47.039062 49.492188 47.414062 49.332031 47.746094 48.988281 C 48.039062 48.667969 48.039062 48.640625 47.800781 48.71875 C 47.585938 48.785156 47.308594 48.574219 46.464844 47.71875 L 45.398438 46.640625 L 46.132812 46.71875 C 46.535156 46.761719 47.507812 46.828125 48.28125 46.867188 C 49.492188 46.933594 49.734375 46.921875 49.921875 46.71875 C 50.171875 46.480469 50.105469 46.28125 49.839844 46.507812 C 49.707031 46.601562 49.375 46.359375 48.492188 45.535156 C 47.492188 44.585938 47.359375 44.414062 47.535156 44.265625 C 47.691406 44.132812 47.773438 44.132812 47.933594 44.265625 C 48.039062 44.359375 48.132812 44.375 48.132812 44.292969 C 48.132812 44.226562 48.039062 44.09375 47.933594 44 C 47.761719 43.851562 47.800781 43.746094 48.226562 43.148438 C 48.492188 42.773438 48.734375 42.441406 48.746094 42.425781 C 48.773438 42.398438 49.054688 42.558594 49.398438 42.800781 C 49.773438 43.054688 49.972656 43.28125 49.921875 43.375 C 49.867188 43.464844 49.640625 43.800781 49.425781 44.121094 C 48.894531 44.894531 49.199219 44.773438 49.761719 43.972656 L 50.214844 43.347656 L 50.800781 43.746094 C 51.132812 43.960938 51.386719 44.199219 51.375 44.265625 C 51.347656 44.332031 51.148438 44.652344 50.921875 44.988281 C 50.558594 45.492188 50.453125 45.558594 50.238281 45.453125 C 49.894531 45.265625 49.933594 45.492188 50.292969 45.71875 C 50.464844 45.828125 50.601562 45.851562 50.625 45.773438 C 50.652344 45.691406 50.945312 45.253906 51.265625 44.800781 C 51.851562 43.960938 52.027344 43.558594 51.707031 43.839844 C 51.574219 43.933594 51.171875 43.734375 50.238281 43.121094 C 49.519531 42.640625 48.933594 42.214844 48.933594 42.160156 C 48.933594 42.105469 48.988281 41.988281 49.054688 41.894531 C 49.132812 41.746094 49.253906 41.773438 49.613281 41.988281 C 50.214844 42.359375 50.359375 42.332031 50.601562 41.867188 C 50.734375 41.601562 50.761719 41.464844 50.652344 41.464844 C 50.574219 41.464844 50.480469 41.585938 50.441406 41.734375 C 50.398438 41.878906 50.28125 42 50.171875 42 C 49.867188 42 49.332031 41.585938 49.332031 41.347656 C 49.347656 40.679688 50.1875 40 50.972656 40 C 52.386719 40 53.121094 41.425781 52.332031 42.601562 C 51.933594 43.1875 51.972656 43.375 52.386719 42.851562 C 53.652344 41.238281 51.988281 39.054688 50.171875 39.945312 Z M 50.171875 39.945312 "/>
<path style=" stroke:none;fill-rule:nonzero;fill:rgb(0%,0%,0%);fill-opacity:1;" d="M 13.292969 41.535156 C 12.09375 42.160156 11.839844 43.679688 12.800781 44.601562 C 13.132812 44.921875 13.347656 45 14 45.039062 C 14.785156 45.09375 14.8125 45.09375 15.308594 44.585938 C 16.011719 43.878906 16.132812 43.238281 15.707031 42.425781 C 15.214844 41.464844 14.171875 41.078125 13.292969 41.535156 Z M 14.800781 41.773438 C 14.972656 41.867188 15.265625 42.148438 15.425781 42.386719 C 16.507812 43.988281 14.28125 45.761719 12.90625 44.398438 C 11.652344 43.132812 13.199219 40.960938 14.800781 41.773438 Z M 14.800781 41.773438 "/>
<path style=" stroke:none;fill-rule:nonzero;fill:rgb(0%,0%,0%);fill-opacity:1;" d="M 16.625 43.945312 C 16.574219 44 16.601562 44.121094 16.667969 44.199219 C 16.773438 44.320312 16.585938 44.546875 15.972656 45.039062 C 15.507812 45.414062 14.960938 45.867188 14.734375 46.039062 C 14.441406 46.292969 14.292969 46.332031 14.160156 46.238281 C 13.867188 45.988281 13.851562 46.214844 14.148438 46.574219 C 14.441406 46.945312 14.746094 47.066406 14.625 46.746094 C 14.546875 46.546875 15.121094 45.972656 16.265625 45.078125 C 16.667969 44.773438 17.011719 44.574219 17.039062 44.652344 C 17.09375 44.8125 17.332031 44.851562 17.332031 44.691406 C 17.320312 44.507812 16.71875 43.867188 16.625 43.945312 Z M 16.625 43.945312 "/>
<path style=" stroke:none;fill-rule:nonzero;fill:rgb(0%,0%,0%);fill-opacity:1;" d="M 18.09375 45.558594 C 18.039062 45.601562 18.066406 45.71875 18.132812 45.800781 C 18.238281 45.921875 17.972656 46.28125 17.171875 47.121094 L 16.066406 48.28125 L 15.640625 47.894531 C 15.253906 47.535156 15.238281 47.480469 15.441406 47.292969 C 15.558594 47.171875 15.613281 47.027344 15.558594 46.972656 C 15.507812 46.921875 15.332031 47.011719 15.160156 47.171875 L 14.878906 47.464844 L 15.867188 48.464844 C 16.414062 49.011719 16.90625 49.464844 16.960938 49.464844 C 17.148438 49.464844 17.585938 49.011719 17.507812 48.90625 C 17.464844 48.839844 17.332031 48.878906 17.214844 48.988281 C 17 49.1875 16.945312 49.160156 16.601562 48.800781 L 16.214844 48.398438 L 17.332031 47.265625 C 18.1875 46.398438 18.492188 46.171875 18.625 46.292969 C 18.921875 46.535156 18.828125 46.226562 18.480469 45.839844 C 18.320312 45.640625 18.132812 45.507812 18.09375 45.558594 Z M 18.09375 45.558594 "/>
<path style=" stroke:none;fill-rule:nonzero;fill:rgb(0%,0%,0%);fill-opacity:1;" d="M 19.464844 47.039062 C 19.464844 47.09375 19.535156 47.214844 19.613281 47.292969 C 19.71875 47.398438 19.667969 47.90625 19.414062 49.132812 C 19.226562 50.078125 19.066406 50.921875 19.066406 51.027344 C 19.066406 51.160156 19.253906 51.09375 19.640625 50.828125 C 19.945312 50.613281 20.679688 50.132812 21.28125 49.773438 C 22.308594 49.121094 22.359375 49.105469 22.773438 49.28125 L 23.214844 49.453125 L 22.464844 50.921875 C 21.921875 52.011719 21.679688 52.375 21.535156 52.320312 C 21.425781 52.265625 21.332031 52.292969 21.332031 52.375 C 21.332031 52.441406 21.441406 52.535156 21.574219 52.574219 C 21.691406 52.601562 21.921875 52.679688 22.066406 52.746094 C 22.292969 52.839844 22.308594 52.828125 22.160156 52.640625 C 22.011719 52.453125 22.09375 52.214844 22.691406 51.011719 C 23.105469 50.1875 23.464844 49.625 23.546875 49.652344 C 23.640625 49.691406 23.746094 49.679688 23.785156 49.625 C 23.867188 49.558594 23.199219 49.199219 22.828125 49.121094 C 22.71875 49.105469 22.535156 48.988281 22.414062 48.878906 C 22.132812 48.625 21.851562 48.601562 21.945312 48.839844 C 21.988281 48.945312 21.785156 49.171875 21.464844 49.386719 L 20.921875 49.746094 L 20.320312 49.375 C 19.71875 49 19.71875 49 19.800781 48.398438 C 19.90625 47.679688 19.945312 47.601562 20.238281 47.601562 C 20.441406 47.585938 20.425781 47.558594 20.199219 47.386719 C 19.785156 47.066406 19.464844 46.921875 19.464844 47.039062 Z M 20.226562 49.535156 C 20.464844 49.679688 20.667969 49.828125 20.667969 49.867188 C 20.667969 49.960938 19.441406 50.691406 19.386719 50.625 C 19.308594 50.546875 19.640625 49.1875 19.71875 49.238281 C 19.761719 49.253906 20 49.386719 20.226562 49.535156 Z M 20.226562 49.535156 "/>
<path style=" stroke:none;fill-rule:nonzero;fill:rgb(0%,0%,0%);fill-opacity:1;" d="M 43.375 47.800781 C 42.960938 47.972656 42.425781 48.601562 42.574219 48.746094 C 42.613281 48.785156 42.707031 48.691406 42.785156 48.546875 C 43.160156 47.867188 44.480469 47.640625 45.132812 48.160156 C 45.988281 48.828125 46.039062 49.972656 45.253906 50.667969 C 44.746094 51.09375 44.546875 51.160156 44.292969 50.90625 C 44.066406 50.679688 43.988281 50.828125 44.199219 51.105469 C 44.359375 51.320312 44.414062 51.332031 44.828125 51.160156 C 45.625 50.8125 45.933594 50.347656 45.933594 49.464844 C 45.933594 48.828125 45.878906 48.625 45.601562 48.332031 C 44.933594 47.613281 44.199219 47.441406 43.375 47.800781 Z M 43.375 47.800781 "/>
<path style=" stroke:none;fill-rule:nonzero;fill:rgb(0%,0%,0%);fill-opacity:1;" d="M 41.09375 49.1875 C 40.546875 49.480469 40.078125 49.746094 40.039062 49.773438 C 39.960938 49.867188 40.292969 50.398438 40.441406 50.398438 C 40.492188 50.398438 40.480469 50.28125 40.398438 50.148438 C 40.28125 49.921875 40.359375 49.839844 40.988281 49.480469 C 41.375 49.253906 41.761719 49.066406 41.828125 49.066406 C 41.921875 49.066406 42.535156 50.148438 42.535156 50.332031 C 42.535156 50.359375 42.199219 50.574219 41.785156 50.800781 C 41.386719 51.039062 41.078125 51.253906 41.121094 51.292969 C 41.160156 51.332031 41.507812 51.171875 41.90625 50.945312 L 42.640625 50.535156 L 42.988281 51.121094 C 43.171875 51.453125 43.332031 51.773438 43.332031 51.839844 C 43.332031 51.90625 43 52.132812 42.601562 52.347656 C 41.878906 52.707031 41.851562 52.707031 41.667969 52.453125 C 41.558594 52.320312 41.464844 52.265625 41.464844 52.347656 C 41.464844 52.414062 41.546875 52.585938 41.640625 52.71875 C 41.8125 52.960938 41.878906 52.933594 42.90625 52.398438 C 43.507812 52.09375 43.960938 51.785156 43.933594 51.71875 C 43.894531 51.667969 43.785156 51.640625 43.691406 51.667969 C 43.601562 51.707031 43.238281 51.171875 42.800781 50.332031 C 42.1875 49.148438 42.09375 48.90625 42.265625 48.800781 C 42.441406 48.679688 42.441406 48.667969 42.265625 48.667969 C 42.160156 48.667969 41.625 48.90625 41.09375 49.1875 Z M 41.09375 49.1875 "/>
<path style=" stroke:none;fill-rule:nonzero;fill:rgb(0%,0%,0%);fill-opacity:1;" d="M 24.425781 50.078125 C 25.28125 50.347656 25.734375 50.90625 25.734375 51.691406 C 25.734375 52.214844 25.667969 52.359375 25.214844 52.8125 C 24.800781 53.226562 24.601562 53.332031 24.214844 53.332031 C 23.519531 53.332031 22.894531 52.988281 22.972656 52.652344 C 23.054688 52.347656 22.867188 52.308594 22.746094 52.613281 C 22.625 52.921875 23.011719 53.308594 23.601562 53.464844 C 24.785156 53.785156 26 52.878906 26 51.652344 C 26 50.71875 25.160156 49.851562 24.265625 49.878906 C 23.800781 49.878906 23.800781 49.878906 24.425781 50.078125 Z M 24.425781 50.078125 "/>
<path style=" stroke:none;fill-rule:nonzero;fill:rgb(0%,0%,0%);fill-opacity:1;" d="M 38.039062 50.492188 C 37.707031 50.558594 37.625 50.761719 37.90625 50.828125 C 38.027344 50.851562 38.039062 51.039062 37.960938 51.546875 C 37.867188 52.160156 37.8125 52.238281 37.480469 52.308594 C 37.265625 52.347656 36.945312 52.425781 36.761719 52.464844 C 36.464844 52.546875 36.359375 52.464844 36.011719 51.988281 C 35.707031 51.574219 35.640625 51.386719 35.761719 51.320312 C 36.027344 51.148438 35.8125 51.054688 35.359375 51.148438 C 35.121094 51.199219 34.933594 51.292969 34.933594 51.359375 C 34.933594 51.441406 35.027344 51.464844 35.132812 51.414062 C 35.265625 51.375 35.464844 51.558594 35.761719 51.972656 C 36 52.320312 36.480469 52.988281 36.851562 53.464844 C 37.214844 53.945312 37.535156 54.359375 37.558594 54.386719 C 37.652344 54.535156 37.734375 54.214844 38.011719 52.535156 C 38.214844 51.308594 38.375 50.679688 38.519531 50.574219 C 38.761719 50.386719 38.652344 50.375 38.039062 50.492188 Z M 37.640625 53.585938 L 37.535156 54.011719 L 37.039062 53.375 L 36.546875 52.734375 L 37.105469 52.585938 C 37.652344 52.453125 37.667969 52.453125 37.707031 52.8125 C 37.734375 53.011719 37.691406 53.359375 37.640625 53.585938 Z M 37.640625 53.585938 "/>
<path style=" stroke:none;fill-rule:nonzero;fill:rgb(0%,0%,0%);fill-opacity:1;" d="M 27.265625 51.199219 C 26.601562 51.535156 26.265625 52.066406 26.265625 52.828125 C 26.265625 54.878906 29.011719 55.386719 29.828125 53.480469 C 30.171875 52.652344 29.746094 51.574219 28.894531 51.1875 C 28.1875 50.867188 27.921875 50.867188 27.265625 51.199219 Z M 28.988281 51.480469 C 29.734375 52.066406 29.921875 52.945312 29.464844 53.691406 C 28.773438 54.851562 27.09375 54.734375 26.574219 53.507812 C 26.238281 52.707031 26.640625 51.625 27.386719 51.332031 C 27.90625 51.121094 28.613281 51.1875 28.988281 51.480469 Z M 28.988281 51.480469 "/>
<path style=" stroke:none;fill-rule:nonzero;fill:rgb(0%,0%,0%);fill-opacity:1;" d="M 30.839844 51.480469 C 30.679688 51.574219 30.480469 51.8125 30.414062 52.027344 C 30.199219 52.652344 30.425781 53.011719 31.292969 53.425781 C 31.988281 53.761719 32.066406 53.839844 32.066406 54.199219 C 32.066406 54.492188 31.972656 54.640625 31.734375 54.761719 C 31.292969 54.972656 30.800781 54.839844 30.800781 54.519531 C 30.800781 54.375 30.746094 54.265625 30.667969 54.265625 C 30.601562 54.265625 30.535156 54.375 30.535156 54.507812 C 30.535156 55.253906 31.878906 55.265625 32.28125 54.519531 C 32.535156 54.027344 32.214844 53.546875 31.386719 53.214844 C 30.558594 52.867188 30.359375 52.480469 30.71875 51.933594 C 31.054688 51.425781 32.265625 51.480469 32.265625 52 C 32.265625 52.148438 32.332031 52.292969 32.398438 52.332031 C 32.613281 52.464844 32.558594 51.785156 32.332031 51.601562 C 32.066406 51.375 31.1875 51.308594 30.839844 51.480469 Z M 30.839844 51.480469 "/>
<path style=" stroke:none;fill-rule:nonzero;fill:rgb(0%,0%,0%);fill-opacity:1;" d="M 33.09375 51.546875 C 32.878906 51.691406 32.800781 51.878906 32.800781 52.253906 C 32.800781 52.878906 33.066406 53.132812 33.972656 53.398438 C 34.746094 53.640625 34.945312 53.960938 34.613281 54.464844 C 34.320312 54.90625 33.464844 54.945312 33.464844 54.535156 C 33.464844 54.386719 33.398438 54.265625 33.320312 54.265625 C 33.238281 54.265625 33.199219 54.398438 33.226562 54.558594 C 33.253906 54.8125 33.359375 54.878906 33.851562 54.90625 C 34.574219 54.960938 34.933594 54.679688 34.933594 54.054688 C 34.933594 53.535156 34.625 53.28125 33.828125 53.148438 C 32.667969 52.933594 32.71875 51.480469 33.894531 51.464844 C 34.441406 51.464844 34.667969 51.601562 34.667969 51.945312 C 34.667969 52.121094 34.734375 52.265625 34.800781 52.265625 C 35.039062 52.265625 34.945312 51.613281 34.679688 51.464844 C 34.292969 51.265625 33.441406 51.308594 33.09375 51.546875 Z M 33.09375 51.546875 "/>
</g>
</svg>
